<svg width="189" height="85" viewBox="0 0 189 85" fill="none" xmlns="http://www.w3.org/2000/svg">
<path d="M31.5938 27.582H24.9668C24.4746 29.1289 23.9414 30.4707 23.3672 31.6074C22.8047 32.7441 22.1777 33.6875 21.4863 34.4375C20.7949 35.1875 20.0332 35.7441 19.2012 36.1074C18.3809 36.4707 17.4609 36.6523 16.4414 36.6523C15.8789 36.6523 15.3398 36.5996 14.8242 36.4941C14.2969 36.4004 13.834 36.2656 13.4355 36.0898C13.0371 35.9141 12.7207 35.7031 12.4863 35.457C12.2402 35.2227 12.1172 34.9648 12.1172 34.6836C12.1172 34.4727 12.1523 34.2617 12.2227 34.0508C12.2812 33.8281 12.3691 33.6289 12.4863 33.4531C12.6035 33.2656 12.75 33.1191 12.9258 33.0137C13.0898 32.8965 13.2773 32.8379 13.4883 32.8379C13.6758 32.8379 13.8398 32.9668 13.9805 33.2246C14.1211 33.4824 14.3027 33.7695 14.5254 34.0859C14.7363 34.3906 15.0117 34.6719 15.3516 34.9297C15.6914 35.1875 16.1602 35.3164 16.7578 35.3164C17.3672 35.3164 17.9473 35.1699 18.498 34.877C19.0488 34.584 19.5762 34.127 20.0801 33.5059C20.5957 32.873 21.0879 32.0703 21.5566 31.0977C22.0254 30.125 22.4824 28.9531 22.9277 27.582H18.7793V26.0352H23.3848C23.7715 24.7227 24.1465 23.3984 24.5098 22.0625C24.8848 20.7266 25.2363 19.4434 25.5645 18.2129C25.8926 16.9824 26.1855 15.834 26.4434 14.7676C26.7012 13.6895 26.918 12.752 27.0938 11.9551C26.8594 11.2988 26.5371 10.8594 26.127 10.6367C25.7285 10.4141 25.1895 10.3027 24.5098 10.3027C23.877 10.3027 23.2207 10.4023 22.541 10.6016C21.873 10.7891 21.2637 11.0645 20.7129 11.4277C20.1621 11.7793 19.7051 12.2188 19.3418 12.7461C18.9902 13.2617 18.8145 13.8418 18.8145 14.4863C18.8145 14.8613 18.8613 15.1602 18.9551 15.3828C19.0605 15.6055 19.1777 15.7754 19.3066 15.8926C19.4473 15.998 19.582 16.0684 19.7109 16.1035C19.8398 16.127 19.9395 16.1387 20.0098 16.1387C20.291 16.1387 20.5254 16.0918 20.7129 15.998C20.9121 15.8926 21.082 15.7871 21.2227 15.6816C21.375 15.5645 21.5215 15.459 21.6621 15.3652C21.8027 15.2598 21.9609 15.207 22.1367 15.207C22.2656 15.207 22.4062 15.2422 22.5586 15.3125C22.7227 15.3711 22.8691 15.4707 22.998 15.6113C23.1387 15.752 23.2559 15.9395 23.3496 16.1738C23.4434 16.3965 23.4902 16.6719 23.4902 17C23.4902 17.4688 23.3965 17.873 23.209 18.2129C23.0332 18.5527 22.7988 18.8398 22.5059 19.0742C22.2246 19.2969 21.8965 19.4668 21.5215 19.584C21.1582 19.6895 20.7949 19.7422 20.4316 19.7422C19.8691 19.7422 19.3594 19.6426 18.9023 19.4434C18.457 19.2324 18.0762 18.9512 17.7598 18.5996C17.4434 18.248 17.2031 17.8379 17.0391 17.3691C16.875 16.9004 16.793 16.4082 16.793 15.8926C16.793 15.1191 16.9219 14.4102 17.1797 13.7656C17.4375 13.1094 17.7949 12.5176 18.252 11.9902C18.709 11.4512 19.248 10.9824 19.8691 10.584C20.4902 10.1738 21.1582 9.83398 21.873 9.56445C22.5996 9.2832 23.3555 9.07227 24.1406 8.93164C24.9258 8.79102 25.7168 8.7207 26.5137 8.7207C27.6387 8.7207 28.5879 8.81445 29.3613 9.00195C30.1465 9.17773 30.8027 9.44727 31.3301 9.81055C31.8574 10.1621 32.2793 10.6133 32.5957 11.1641C32.9238 11.7031 33.1934 12.3301 33.4043 13.0449L37.1836 26.0352H40.998V27.582H37.6055L38.9766 32.1875C39.0234 32.3633 39.0703 32.5273 39.1172 32.6797C39.1641 32.832 39.2168 32.9668 39.2754 33.084C39.3457 33.1895 39.4277 33.2773 39.5215 33.3477C39.627 33.418 39.7559 33.4531 39.9082 33.4531C40.2363 33.4531 40.541 33.4004 40.8223 33.2949C41.1035 33.1777 41.3496 33.0605 41.5605 32.9434L41.8594 33.5938C41.6484 33.7461 41.3789 33.9219 41.0508 34.1211C40.7344 34.3086 40.3652 34.4902 39.9434 34.666C39.5332 34.8418 39.0762 34.9883 38.5723 35.1055C38.0684 35.2227 37.5293 35.2812 36.9551 35.2812C36.1582 35.2812 35.5137 35.1816 35.0215 34.9824C34.541 34.7832 34.1602 34.5371 33.8789 34.2441C33.6094 33.9512 33.4102 33.6406 33.2812 33.3125C33.1641 32.9844 33.0703 32.6973 33 32.4512L31.5938 27.582ZM28.1836 15.6992C27.7031 17.6562 27.2344 19.4961 26.7773 21.2188C26.332 22.9414 25.8867 24.5469 25.4414 26.0352H31.1719L28.1836 15.6992ZM71.6191 22.9062H64.6758V32.6973C64.6758 33.5996 64.4355 34.2559 63.9551 34.666C63.4863 35.0762 62.7656 35.2812 61.793 35.2812C60.8086 35.2812 60.082 35.0762 59.6133 34.666C59.1445 34.2559 58.9102 33.5996 58.9102 32.6973V22.9062H56.168V21.3594H58.9102V10.3027C58.5352 10.3379 58.1016 10.4082 57.6094 10.5137C57.1289 10.6074 56.6309 10.748 56.1152 10.9355C55.6113 11.1113 55.1133 11.3223 54.6211 11.5684C54.1289 11.8145 53.6895 12.1016 53.3027 12.4297C52.916 12.7578 52.5996 13.127 52.3535 13.5371C52.1191 13.9355 52.002 14.3691 52.002 14.8379C52.002 15.2129 52.0488 15.5117 52.1426 15.7344C52.248 15.957 52.3652 16.127 52.4941 16.2441C52.623 16.3496 52.752 16.4199 52.8809 16.4551C53.0215 16.4785 53.1211 16.4902 53.1797 16.4902C53.4727 16.4902 53.7129 16.4434 53.9004 16.3496C54.0879 16.2441 54.2578 16.1387 54.4102 16.0332C54.5625 15.916 54.7031 15.8105 54.832 15.7168C54.9727 15.6113 55.1309 15.5586 55.3066 15.5586C55.4473 15.5586 55.5938 15.5938 55.7461 15.6641C55.9102 15.7227 56.0566 15.8223 56.1855 15.9629C56.3262 16.1035 56.4434 16.291 56.5371 16.5254C56.6309 16.748 56.6777 17.0234 56.6777 17.3516C56.6777 17.8203 56.584 18.2305 56.3965 18.582C56.2207 18.9219 55.9863 19.2031 55.6934 19.4258C55.4121 19.6484 55.084 19.8184 54.709 19.9355C54.3457 20.041 53.9824 20.0938 53.6191 20.0938C53.0566 20.0938 52.5469 20 52.0898 19.8125C51.6445 19.6133 51.2637 19.3438 50.9473 19.0039C50.6309 18.6641 50.3906 18.2715 50.2266 17.8262C50.0625 17.3691 49.9805 16.877 49.9805 16.3496C49.9805 14.9785 50.3555 13.8125 51.1055 12.8516C51.8672 11.8906 52.9043 11.1055 54.2168 10.4961C55.5293 9.875 57.0586 9.42383 58.8047 9.14258C60.5508 8.86133 62.4199 8.7207 64.4121 8.7207C65.2207 8.7207 66.0645 8.73242 66.9434 8.75586C67.8223 8.76758 68.6484 8.79102 69.4219 8.82617C70.207 8.86133 70.8984 8.90234 71.4961 8.94922C72.0938 8.99609 72.5156 9.04883 72.7617 9.10742C72.9961 9.16602 73.1836 9.23047 73.3242 9.30078C73.4648 9.37109 73.5703 9.45313 73.6406 9.54688C73.7109 9.64062 73.7578 9.75195 73.7812 9.88086C73.8047 9.99805 73.8164 10.1387 73.8164 10.3027C73.8164 10.4434 73.7988 10.6016 73.7637 10.7773C73.7285 10.9414 73.6758 11.0996 73.6055 11.252C73.5352 11.3926 73.4473 11.5156 73.3418 11.6211C73.2363 11.7266 73.1074 11.7793 72.9551 11.7793C72.8613 11.7793 72.7559 11.7383 72.6387 11.6562C72.5332 11.5742 72.375 11.4687 72.1641 11.3398C71.9648 11.2109 71.6895 11.0762 71.3379 10.9355C70.998 10.7949 70.5352 10.6602 69.9492 10.5312C69.375 10.4023 68.6543 10.2969 67.7871 10.2148C66.9316 10.1328 65.8945 10.0918 64.6758 10.0918V21.3594H71.6191V22.9062ZM84.0996 14.293C84.0996 14.7031 84.1641 15.043 84.293 15.3125C84.4219 15.5703 84.5801 15.793 84.7676 15.9805C84.9668 16.1562 85.1777 16.3027 85.4004 16.4199C85.623 16.5371 85.8281 16.6602 86.0156 16.7891C86.2148 16.918 86.3789 17.0645 86.5078 17.2285C86.6367 17.3926 86.7012 17.6035 86.7012 17.8613C86.7012 18.2949 86.5488 18.6289 86.2441 18.8633C85.9395 19.0859 85.5879 19.1973 85.1895 19.1973C84.8145 19.1973 84.4629 19.0801 84.1348 18.8457C83.8184 18.6113 83.5371 18.2949 83.291 17.8965C83.0566 17.4863 82.8691 17.0117 82.7285 16.4727C82.5879 15.9219 82.5176 15.3418 82.5176 14.7324C82.5176 13.9824 82.6348 13.2676 82.8691 12.5879C83.1035 11.8965 83.4492 11.293 83.9062 10.7773C84.3633 10.25 84.9258 9.83398 85.5938 9.5293C86.2734 9.22461 87.0469 9.07227 87.9141 9.07227C88.5 9.07227 89.1387 9.17188 89.8301 9.37109C90.5215 9.55859 91.207 9.86328 91.8867 10.2852C92.5781 10.707 93.2402 11.252 93.873 11.9199C94.5176 12.5879 95.0859 13.4023 95.5781 14.3633C96.082 15.3242 96.4805 16.4375 96.7734 17.7031C97.0664 18.9688 97.2129 20.4043 97.2129 22.0098C97.2129 24.084 96.9023 25.9414 96.2812 27.582C95.6719 29.2227 94.8398 30.6172 93.7852 31.7656C92.7422 32.9023 91.5293 33.7754 90.1465 34.3848C88.7637 34.9824 87.2988 35.2812 85.752 35.2812C84.2168 35.2812 82.752 35.0176 81.3574 34.4902C79.9629 33.9629 78.7324 33.1602 77.666 32.082C76.6113 30.9922 75.7676 29.6152 75.1348 27.9512C74.5137 26.2754 74.2031 24.2949 74.2031 22.0098C74.2031 20.2402 74.4375 18.6289 74.9062 17.1758C75.3867 15.7227 76.0254 14.4336 76.8223 13.3086C77.6309 12.1836 78.5684 11.2402 79.6348 10.4785C80.7012 9.70508 81.832 9.11914 83.0273 8.7207L83.625 9.47656C83.2852 9.81641 82.9688 10.168 82.6758 10.5312C82.3828 10.8945 82.1133 11.3105 81.8672 11.7793C81.6211 12.2363 81.3984 12.7695 81.1992 13.3789C81.0117 13.9766 80.8535 14.6855 80.7246 15.5059C80.5957 16.3145 80.4961 17.252 80.4258 18.3184C80.3555 19.3848 80.3203 20.6152 80.3203 22.0098C80.3203 23.8145 80.4141 25.3555 80.6016 26.6328C80.8008 27.9102 81.0527 28.9824 81.3574 29.8496C81.6738 30.7051 82.0254 31.3906 82.4121 31.9062C82.8105 32.4102 83.209 32.791 83.6074 33.0488C84.0059 33.3066 84.3926 33.4766 84.7676 33.5586C85.1426 33.6289 85.4707 33.6641 85.752 33.6641C86.0332 33.6641 86.3555 33.6289 86.7188 33.5586C87.0938 33.4766 87.4746 33.3066 87.8613 33.0488C88.2598 32.791 88.6523 32.4102 89.0391 31.9062C89.4258 31.3906 89.7656 30.7051 90.0586 29.8496C90.3633 28.9824 90.6094 27.9102 90.7969 26.6328C90.9844 25.3555 91.0781 23.8145 91.0781 22.0098C91.0781 20.4277 91.0078 19.0508 90.8672 17.8789C90.7266 16.707 90.5391 15.7051 90.3047 14.873C90.082 14.041 89.8184 13.3613 89.5137 12.834C89.2207 12.2949 88.9102 11.873 88.582 11.5684C88.2656 11.252 87.9434 11.0352 87.6152 10.918C87.2988 10.8008 87.0059 10.7422 86.7363 10.7422C86.3145 10.7422 85.9395 10.8418 85.6113 11.041C85.2832 11.2402 85.0078 11.5098 84.7852 11.8496C84.5625 12.1777 84.3926 12.5586 84.2754 12.9922C84.1582 13.4141 84.0996 13.8477 84.0996 14.293ZM110.01 14.293C110.01 14.7031 110.074 15.043 110.203 15.3125C110.332 15.5703 110.49 15.793 110.678 15.9805C110.877 16.1562 111.088 16.3027 111.311 16.4199C111.533 16.5371 111.738 16.6602 111.926 16.7891C112.125 16.918 112.289 17.0645 112.418 17.2285C112.547 17.3926 112.611 17.6035 112.611 17.8613C112.611 18.2949 112.459 18.6289 112.154 18.8633C111.85 19.0859 111.498 19.1973 111.1 19.1973C110.725 19.1973 110.373 19.0801 110.045 18.8457C109.729 18.6113 109.447 18.2949 109.201 17.8965C108.967 17.4863 108.779 17.0117 108.639 16.4727C108.498 15.9219 108.428 15.3418 108.428 14.7324C108.428 13.9824 108.545 13.2676 108.779 12.5879C109.014 11.8965 109.359 11.293 109.816 10.7773C110.273 10.25 110.836 9.83398 111.504 9.5293C112.184 9.22461 112.957 9.07227 113.824 9.07227C114.41 9.07227 115.049 9.17188 115.74 9.37109C116.432 9.55859 117.117 9.86328 117.797 10.2852C118.488 10.707 119.15 11.252 119.783 11.9199C120.428 12.5879 120.996 13.4023 121.488 14.3633C121.992 15.3242 122.391 16.4375 122.684 17.7031C122.977 18.9688 123.123 20.4043 123.123 22.0098C123.123 24.084 122.812 25.9414 122.191 27.582C121.582 29.2227 120.75 30.6172 119.695 31.7656C118.652 32.9023 117.439 33.7754 116.057 34.3848C114.674 34.9824 113.209 35.2812 111.662 35.2812C110.127 35.2812 108.662 35.0176 107.268 34.4902C105.873 33.9629 104.643 33.1602 103.576 32.082C102.521 30.9922 101.678 29.6152 101.045 27.9512C100.424 26.2754 100.113 24.2949 100.113 22.0098C100.113 20.2402 100.348 18.6289 100.816 17.1758C101.297 15.7227 101.936 14.4336 102.732 13.3086C103.541 12.1836 104.479 11.2402 105.545 10.4785C106.611 9.70508 107.742 9.11914 108.938 8.7207L109.535 9.47656C109.195 9.81641 108.879 10.168 108.586 10.5312C108.293 10.8945 108.023 11.3105 107.777 11.7793C107.531 12.2363 107.309 12.7695 107.109 13.3789C106.922 13.9766 106.764 14.6855 106.635 15.5059C106.506 16.3145 106.406 17.252 106.336 18.3184C106.266 19.3848 106.23 20.6152 106.23 22.0098C106.23 23.8145 106.324 25.3555 106.512 26.6328C106.711 27.9102 106.963 28.9824 107.268 29.8496C107.584 30.7051 107.936 31.3906 108.322 31.9062C108.721 32.4102 109.119 32.791 109.518 33.0488C109.916 33.3066 110.303 33.4766 110.678 33.5586C111.053 33.6289 111.381 33.6641 111.662 33.6641C111.943 33.6641 112.266 33.6289 112.629 33.5586C113.004 33.4766 113.385 33.3066 113.771 33.0488C114.17 32.791 114.562 32.4102 114.949 31.9062C115.336 31.3906 115.676 30.7051 115.969 29.8496C116.273 28.9824 116.52 27.9102 116.707 26.6328C116.895 25.3555 116.988 23.8145 116.988 22.0098C116.988 20.4277 116.918 19.0508 116.777 17.8789C116.637 16.707 116.449 15.7051 116.215 14.873C115.992 14.041 115.729 13.3613 115.424 12.834C115.131 12.2949 114.82 11.873 114.492 11.5684C114.176 11.252 113.854 11.0352 113.525 10.918C113.209 10.8008 112.916 10.7422 112.646 10.7422C112.225 10.7422 111.85 10.8418 111.521 11.041C111.193 11.2402 110.918 11.5098 110.695 11.8496C110.473 12.1777 110.303 12.5586 110.186 12.9922C110.068 13.4141 110.01 13.8477 110.01 14.293ZM139.277 31.0098C139.277 31.5137 139.336 31.9238 139.453 32.2402C139.582 32.5449 139.764 32.7852 139.998 32.9609C140.232 33.1367 140.525 33.2598 140.877 33.3301C141.24 33.3887 141.662 33.418 142.143 33.418C142.916 33.418 143.613 33.3418 144.234 33.1895C144.855 33.0254 145.4 32.8496 145.869 32.6621C146.338 32.4629 146.73 32.2812 147.047 32.1172C147.375 31.9531 147.627 31.8711 147.803 31.8711C148.025 31.8711 148.201 31.9414 148.33 32.082C148.459 32.2227 148.523 32.4277 148.523 32.6973C148.523 33.166 148.477 33.5059 148.383 33.7168C148.289 33.916 148.096 34.0684 147.803 34.1738C146.736 34.5488 145.535 34.8242 144.199 35C142.863 35.1875 141.352 35.2812 139.664 35.2812C138.41 35.2812 137.385 35.2227 136.588 35.1055C135.791 35 135.164 34.8066 134.707 34.5254C134.25 34.2441 133.934 33.8633 133.758 33.3828C133.594 32.8906 133.512 32.2637 133.512 31.502V11.5332C133.512 11.2754 133.482 11.0703 133.424 10.918C133.365 10.7656 133.283 10.6484 133.178 10.5664C133.072 10.4727 132.943 10.4141 132.791 10.3906C132.65 10.3555 132.492 10.3379 132.316 10.3379C132.059 10.3379 131.736 10.3789 131.35 10.4609C130.975 10.543 130.576 10.666 130.154 10.8301C129.732 10.9941 129.305 11.1992 128.871 11.4453C128.449 11.6797 128.068 11.9492 127.729 12.2539C127.4 12.5586 127.131 12.8984 126.92 13.2734C126.709 13.6484 126.604 14.0527 126.604 14.4863C126.604 14.8613 126.65 15.1602 126.744 15.3828C126.85 15.6055 126.967 15.7754 127.096 15.8926C127.225 15.998 127.354 16.0684 127.482 16.1035C127.623 16.127 127.723 16.1387 127.781 16.1387C128.074 16.1387 128.314 16.0918 128.502 15.998C128.689 15.8926 128.859 15.7871 129.012 15.6816C129.164 15.5645 129.305 15.459 129.434 15.3652C129.574 15.2598 129.732 15.207 129.908 15.207C130.049 15.207 130.195 15.2422 130.348 15.3125C130.512 15.3711 130.658 15.4707 130.787 15.6113C130.928 15.752 131.045 15.9395 131.139 16.1738C131.232 16.3965 131.279 16.6719 131.279 17C131.279 17.4688 131.186 17.873 130.998 18.2129C130.822 18.5527 130.588 18.8398 130.295 19.0742C130.014 19.2969 129.686 19.4668 129.311 19.584C128.947 19.6895 128.584 19.7422 128.221 19.7422C127.658 19.7422 127.148 19.6484 126.691 19.4609C126.246 19.2617 125.865 18.9922 125.549 18.6523C125.232 18.3125 124.992 17.9141 124.828 17.457C124.664 17 124.582 16.5137 124.582 15.998C124.582 15.1895 124.729 14.4512 125.021 13.7832C125.314 13.1035 125.713 12.4941 126.217 11.9551C126.732 11.416 127.33 10.9473 128.01 10.5488C128.701 10.1387 129.445 9.79883 130.242 9.5293C131.039 9.25977 131.871 9.06055 132.738 8.93164C133.605 8.79102 134.473 8.7207 135.34 8.7207C136.301 8.7207 137.045 8.81445 137.572 9.00195C138.111 9.17773 138.504 9.39453 138.75 9.65234C139.008 9.91016 139.16 10.1797 139.207 10.4609C139.254 10.7422 139.277 10.9766 139.277 11.1641V31.0098ZM145.658 17.2109C146.385 16.7188 146.883 16.1973 147.152 15.6465C147.434 15.084 147.574 14.5508 147.574 14.0469C147.574 13.5078 147.422 13.0332 147.117 12.623C146.824 12.2012 146.496 11.8379 146.133 11.5332C145.957 11.3574 145.869 11.1641 145.869 10.9531C145.869 10.707 145.951 10.4551 146.115 10.1973C146.279 9.93945 146.496 9.69922 146.766 9.47656C147.035 9.25391 147.346 9.07227 147.697 8.93164C148.061 8.79102 148.436 8.7207 148.822 8.7207C149.186 8.7207 149.496 8.81445 149.754 9.00195C150.012 9.18945 150.217 9.41797 150.369 9.6875C150.521 9.95703 150.633 10.2441 150.703 10.5488C150.773 10.8418 150.809 11.1055 150.809 11.3398C150.809 12.0312 150.686 12.6875 150.439 13.3086C150.193 13.9297 149.859 14.5156 149.438 15.0664C149.016 15.6172 148.523 16.127 147.961 16.5957C147.41 17.0527 146.824 17.4629 146.203 17.8262L145.658 17.2109ZM159.562 37.5488C160.031 37.5488 160.494 37.4609 160.951 37.2852C161.408 37.1211 161.812 36.8398 162.164 36.4414C162.527 36.0547 162.82 35.5449 163.043 34.9121C163.266 34.2793 163.377 33.5059 163.377 32.5918C163.377 31.6074 163.131 30.6523 162.639 29.7266C162.158 28.8008 161.549 27.8926 160.811 27.002C160.084 26.0996 159.293 25.209 158.438 24.3301C157.594 23.4395 156.803 22.5371 156.064 21.623C155.338 20.6973 154.729 19.748 154.236 18.7754C153.756 17.791 153.516 16.7656 153.516 15.6992C153.516 14.6328 153.709 13.6719 154.096 12.8164C154.494 11.9492 155.027 11.2168 155.695 10.6191C156.375 10.0098 157.16 9.54102 158.051 9.21289C158.953 8.88477 159.914 8.7207 160.934 8.7207C162.023 8.7207 162.99 8.83789 163.834 9.07227C164.689 9.29492 165.41 9.60547 165.996 10.0039C166.594 10.3906 167.045 10.8535 167.35 11.3926C167.654 11.9199 167.807 12.4824 167.807 13.0801C167.807 13.3613 167.766 13.6543 167.684 13.959C167.602 14.252 167.473 14.5215 167.297 14.7676C167.121 15.0137 166.898 15.2188 166.629 15.3828C166.359 15.5469 166.043 15.6289 165.68 15.6289C165.246 15.6289 164.924 15.5 164.713 15.2422C164.514 14.9727 164.361 14.6445 164.256 14.2578C164.162 13.8711 164.08 13.4492 164.01 12.9922C163.939 12.5234 163.828 12.0957 163.676 11.709C163.523 11.3223 163.295 11 162.99 10.7422C162.686 10.4727 162.24 10.3379 161.654 10.3379C161.338 10.3379 161.021 10.4082 160.705 10.5488C160.4 10.6895 160.119 10.9062 159.861 11.1992C159.615 11.4805 159.416 11.8438 159.264 12.2891C159.111 12.7344 159.035 13.2617 159.035 13.8711C159.035 14.5742 159.182 15.2598 159.475 15.9277C159.768 16.5957 160.154 17.2578 160.635 17.9141C161.115 18.5586 161.66 19.209 162.27 19.8652C162.891 20.5098 163.518 21.166 164.15 21.834C164.795 22.4902 165.422 23.1699 166.031 23.873C166.652 24.5645 167.203 25.2852 167.684 26.0352C168.164 26.7852 168.551 27.5703 168.844 28.3906C169.137 29.2109 169.283 30.0723 169.283 30.9746C169.283 32.2988 169.025 33.4824 168.51 34.5254C168.006 35.5566 167.314 36.4238 166.436 37.127C165.568 37.8418 164.549 38.3867 163.377 38.7617C162.205 39.1367 160.957 39.3242 159.633 39.3242C158.438 39.3242 157.377 39.1719 156.451 38.8672C155.537 38.5742 154.764 38.1816 154.131 37.6895C153.498 37.1973 153.018 36.6348 152.689 36.002C152.373 35.3809 152.215 34.7363 152.215 34.0684C152.215 33.7871 152.256 33.4883 152.338 33.1719C152.432 32.8438 152.561 32.5449 152.725 32.2754C152.9 32.0059 153.117 31.7832 153.375 31.6074C153.633 31.4199 153.932 31.3262 154.271 31.3262C154.623 31.3262 154.904 31.4141 155.115 31.5898C155.338 31.7656 155.514 32 155.643 32.293C155.771 32.5859 155.877 32.9199 155.959 33.2949C156.041 33.6699 156.129 34.0508 156.223 34.4375C156.316 34.8242 156.434 35.2051 156.574 35.5801C156.715 35.9551 156.908 36.2891 157.154 36.582C157.4 36.875 157.717 37.1094 158.104 37.2852C158.49 37.4609 158.977 37.5488 159.562 37.5488Z" fill="#6F6F36"/>
<path d="M19.1211 72.2812C19.1211 72.4505 19.0951 72.6523 19.043 72.8867C18.9909 73.1211 18.8607 73.3424 18.6523 73.5508C18.457 73.7591 18.1576 73.9349 17.7539 74.0781C17.3503 74.2344 16.8034 74.3125 16.1133 74.3125C15.4232 74.3125 14.8763 74.2279 14.4727 74.0586C14.082 73.9023 13.7826 73.7135 13.5742 73.4922C13.3789 73.2708 13.2552 73.043 13.2031 72.8086C13.151 72.5742 13.125 72.3854 13.125 72.2422V58.4336C13.125 58.2513 13.099 58.069 13.0469 57.8867C12.9948 57.6914 12.9167 57.5156 12.8125 57.3594C12.7083 57.2031 12.5781 57.0794 12.4219 56.9883C12.2656 56.8841 12.0833 56.832 11.875 56.832C11.5234 56.832 11.1784 56.9362 10.8398 57.1445C10.5013 57.3398 10.1823 57.5677 9.88281 57.8281C9.59635 58.0885 9.34245 58.349 9.12109 58.6094C8.91276 58.8698 8.76302 59.0651 8.67188 59.1953V72.2812C8.67188 72.4505 8.64583 72.6523 8.59375 72.8867C8.54167 73.1211 8.41146 73.3424 8.20312 73.5508C8.00781 73.7591 7.70833 73.9349 7.30469 74.0781C6.91406 74.2344 6.3737 74.3125 5.68359 74.3125C4.99349 74.3125 4.44661 74.2279 4.04297 74.0586C3.65234 73.9023 3.35286 73.7135 3.14453 73.4922C2.9362 73.2708 2.80599 73.043 2.75391 72.8086C2.70182 72.5742 2.67578 72.3854 2.67578 72.2422V57.1641C2.67578 56.7865 2.58464 56.4609 2.40234 56.1875C2.23307 55.901 1.9401 55.7578 1.52344 55.7578C1.30208 55.7578 1.11328 55.7969 0.957031 55.875C0.800781 55.9531 0.63151 56.0638 0.449219 56.207L0.0390625 55.7188C0.338542 55.4714 0.670573 55.2305 1.03516 54.9961C1.41276 54.7487 1.81641 54.5339 2.24609 54.3516C2.67578 54.1693 3.13802 54.0195 3.63281 53.9023C4.1276 53.7852 4.64844 53.7266 5.19531 53.7266C6.04167 53.7266 6.69922 53.8698 7.16797 54.1562C7.63672 54.4297 7.98177 54.7617 8.20312 55.1523C8.42448 55.543 8.55469 55.9531 8.59375 56.3828C8.64583 56.7995 8.67188 57.151 8.67188 57.4375C9.28385 56.7474 9.94141 56.1289 10.6445 55.582C10.931 55.3477 11.2435 55.1198 11.582 54.8984C11.9336 54.6771 12.2917 54.4818 12.6562 54.3125C13.0208 54.1302 13.3984 53.987 13.7891 53.8828C14.1797 53.7786 14.5703 53.7266 14.9609 53.7266C15.7161 53.7266 16.3607 53.8633 16.8945 54.1367C17.4284 54.4102 17.8581 54.7422 18.1836 55.1328C18.5091 55.5104 18.7435 55.9141 18.8867 56.3438C19.043 56.7604 19.1211 57.125 19.1211 57.4375C19.7461 56.7474 20.4036 56.1289 21.0938 55.582C21.3802 55.3477 21.6927 55.1198 22.0312 54.8984C22.3698 54.6771 22.7214 54.4818 23.0859 54.3125C23.4635 54.1302 23.8411 53.987 24.2188 53.8828C24.6094 53.7786 25 53.7266 25.3906 53.7266C26.1458 53.7266 26.7904 53.8698 27.3242 54.1562C27.8581 54.4297 28.2878 54.7943 28.6133 55.25C28.9388 55.7057 29.1732 56.2201 29.3164 56.793C29.4727 57.3659 29.5508 57.9388 29.5508 58.5117V70.6016C29.5508 70.7188 29.5573 70.849 29.5703 70.9922C29.5833 71.1224 29.6159 71.2526 29.668 71.3828C29.7201 71.5 29.7982 71.5977 29.9023 71.6758C30.0195 71.7539 30.1693 71.793 30.3516 71.793C30.599 71.793 30.8203 71.7083 31.0156 71.5391C31.2109 71.3568 31.3932 71.1745 31.5625 70.9922L32.0312 71.4023C31.849 71.6758 31.6081 71.9818 31.3086 72.3203C31.0091 72.6458 30.651 72.9583 30.2344 73.2578C29.8307 73.5573 29.3555 73.8047 28.8086 74C28.2747 74.2083 27.6693 74.3125 26.9922 74.3125C26.4193 74.3125 25.918 74.2344 25.4883 74.0781C25.0716 73.9349 24.7135 73.7396 24.4141 73.4922C24.1276 73.2318 23.9128 72.9323 23.7695 72.5938C23.6263 72.2422 23.5547 71.8711 23.5547 71.4805V58.4336C23.5547 58.2513 23.5286 58.069 23.4766 57.8867C23.4245 57.6914 23.3464 57.5156 23.2422 57.3594C23.151 57.2031 23.0273 57.0794 22.8711 56.9883C22.7148 56.8841 22.5326 56.832 22.3242 56.832C21.9727 56.832 21.6211 56.9362 21.2695 57.1445C20.931 57.3398 20.612 57.5677 20.3125 57.8281C20.026 58.0885 19.7786 58.349 19.5703 58.6094C19.362 58.8698 19.2122 59.0651 19.1211 59.1953V72.2812ZM43.4961 63.8828C43.4961 63.5573 43.3919 63.3099 43.1836 63.1406C42.9753 62.9714 42.7083 62.8867 42.3828 62.8867C41.9271 62.8867 41.4909 62.9909 41.0742 63.1992C40.6706 63.4076 40.3125 63.7135 40 64.1172C39.6875 64.5208 39.4401 65.0221 39.2578 65.6211C39.0755 66.207 38.9844 66.8906 38.9844 67.6719C38.9844 68.4271 39.0365 69.0521 39.1406 69.5469C39.2578 70.0417 39.4076 70.4388 39.5898 70.7383C39.7852 71.0247 40.0065 71.2266 40.2539 71.3438C40.5013 71.4609 40.7617 71.5195 41.0352 71.5195C41.3737 71.5195 41.6927 71.4349 41.9922 71.2656C42.2917 71.0833 42.5521 70.8555 42.7734 70.582C42.9948 70.3086 43.1706 70.0026 43.3008 69.6641C43.431 69.3255 43.4961 68.987 43.4961 68.6484V63.8828ZM40.3906 55.3281C39.9479 55.3281 39.5378 55.3802 39.1602 55.4844C38.7826 55.5885 38.457 55.7188 38.1836 55.875C37.9102 56.0312 37.6953 56.207 37.5391 56.4023C37.3828 56.5846 37.3047 56.7604 37.3047 56.9297C37.3047 57.125 37.4023 57.2682 37.5977 57.3594C37.806 57.4375 38.0339 57.5352 38.2812 57.6523C38.5286 57.7565 38.75 57.9128 38.9453 58.1211C39.1536 58.3164 39.2578 58.6224 39.2578 59.0391C39.2578 59.3125 39.1992 59.5664 39.082 59.8008C38.9779 60.0221 38.8281 60.224 38.6328 60.4062C38.4505 60.5755 38.2292 60.7122 37.9688 60.8164C37.7214 60.9076 37.4609 60.9531 37.1875 60.9531C36.4583 60.9531 35.8659 60.7057 35.4102 60.2109C34.9674 59.7161 34.7461 59.0586 34.7461 58.2383C34.7461 57.444 34.9544 56.7669 35.3711 56.207C35.7878 55.6341 36.3281 55.1654 36.9922 54.8008C37.6693 54.4362 38.431 54.1693 39.2773 54C40.1237 53.8177 40.9701 53.7266 41.8164 53.7266C42.832 53.7266 43.8021 53.8372 44.7266 54.0586C45.651 54.2799 46.4648 54.6315 47.168 55.1133C47.8841 55.5951 48.4505 56.207 48.8672 56.9492C49.2969 57.6914 49.5117 58.5898 49.5117 59.6445V70.6797C49.5117 70.7969 49.5182 70.9271 49.5312 71.0703C49.5443 71.2135 49.5768 71.3438 49.6289 71.4609C49.681 71.5781 49.7591 71.6758 49.8633 71.7539C49.9674 71.832 50.1172 71.8711 50.3125 71.8711C50.5469 71.8711 50.7617 71.7865 50.957 71.6172C51.1654 71.4349 51.3477 71.2526 51.5039 71.0703L51.9922 71.4805C51.7969 71.7539 51.5625 72.0534 51.2891 72.3789C51.0156 72.7044 50.6836 73.0104 50.293 73.2969C49.9023 73.5833 49.4466 73.8242 48.9258 74.0195C48.4049 74.2148 47.8125 74.3125 47.1484 74.3125C46.3281 74.3125 45.599 74.0716 44.9609 73.5898C44.3229 73.0951 43.9062 72.3398 43.7109 71.3242C43.2943 71.8841 42.8581 72.3529 42.4023 72.7305C41.9596 73.1081 41.5039 73.4141 41.0352 73.6484C40.5664 73.8828 40.0911 74.0521 39.6094 74.1562C39.1406 74.2604 38.6654 74.3125 38.1836 74.3125C37.5586 74.3125 36.9531 74.2148 36.3672 74.0195C35.7812 73.8242 35.2539 73.5182 34.7852 73.1016C34.3294 72.6719 33.9583 72.1185 33.6719 71.4414C33.3984 70.7643 33.2617 69.9375 33.2617 68.9609C33.2617 67.776 33.4961 66.806 33.9648 66.0508C34.4336 65.2956 35.0456 64.6641 35.8008 64.1562C36.569 63.6354 37.4349 63.1927 38.3984 62.8281C39.375 62.4635 40.3711 62.0794 41.3867 61.6758C42.1419 61.3763 42.6888 60.9336 43.0273 60.3477C43.3789 59.7487 43.5547 59.1367 43.5547 58.5117C43.5547 57.5482 43.2682 56.7799 42.6953 56.207C42.1354 55.6211 41.3672 55.3281 40.3906 55.3281ZM60.8594 72.2422C60.8594 72.4115 60.8268 72.6198 60.7617 72.8672C60.7096 73.1016 60.5729 73.3294 60.3516 73.5508C60.1432 73.7591 59.8372 73.9349 59.4336 74.0781C59.0299 74.2344 58.4831 74.3125 57.793 74.3125C57.1029 74.3125 56.5625 74.2279 56.1719 74.0586C55.7812 73.9023 55.4883 73.7135 55.293 73.4922C55.0977 73.2708 54.974 73.043 54.9219 72.8086C54.8828 72.5742 54.8633 72.3854 54.8633 72.2422V57.1641C54.8633 56.7865 54.7721 56.4609 54.5898 56.1875C54.4206 55.901 54.1276 55.7578 53.7109 55.7578C53.4896 55.7578 53.3008 55.7969 53.1445 55.875C52.9883 55.9531 52.819 56.0638 52.6367 56.207L52.2266 55.7188C52.526 55.4714 52.8581 55.2305 53.2227 54.9961C53.6003 54.7487 54.0039 54.5339 54.4336 54.3516C54.8633 54.1693 55.3255 54.0195 55.8203 53.9023C56.3151 53.7852 56.8359 53.7266 57.3828 53.7266C58.2292 53.7266 58.8867 53.8438 59.3555 54.0781C59.8242 54.2995 60.1693 54.5794 60.3906 54.918C60.612 55.2435 60.7422 55.5951 60.7812 55.9727C60.8333 56.3503 60.8594 56.6823 60.8594 56.9688V72.2422ZM54.2578 49.2734C54.2578 48.9089 54.3359 48.5638 54.4922 48.2383C54.6615 47.8997 54.8893 47.6068 55.1758 47.3594C55.4753 47.112 55.8138 46.9167 56.1914 46.7734C56.582 46.6302 57.0052 46.5586 57.4609 46.5586C57.9036 46.5586 58.3138 46.6302 58.6914 46.7734C59.082 46.9167 59.4206 47.112 59.707 47.3594C59.9935 47.6068 60.2148 47.8997 60.3711 48.2383C60.5404 48.5638 60.625 48.9089 60.625 49.2734C60.625 49.651 60.5404 50.0026 60.3711 50.3281C60.2148 50.6536 59.9935 50.9401 59.707 51.1875C59.4206 51.4219 59.082 51.6107 58.6914 51.7539C58.3138 51.8971 57.9036 51.9688 57.4609 51.9688C57.0052 51.9688 56.582 51.8971 56.1914 51.7539C55.8138 51.6107 55.4753 51.4219 55.1758 51.1875C54.8893 50.9401 54.6615 50.6536 54.4922 50.3281C54.3359 50.0026 54.2578 49.651 54.2578 49.2734ZM71.8359 72.2812C71.8359 72.4505 71.8034 72.6523 71.7383 72.8867C71.6862 73.1211 71.5495 73.3424 71.3281 73.5508C71.1198 73.7591 70.8073 73.9349 70.3906 74.0781C69.987 74.2344 69.4401 74.3125 68.75 74.3125C68.0599 74.3125 67.5195 74.2279 67.1289 74.0586C66.7383 73.9023 66.4453 73.7135 66.25 73.4922C66.0677 73.2708 65.9505 73.043 65.8984 72.8086C65.8594 72.5742 65.8398 72.3854 65.8398 72.2422V47.0469C65.8398 46.6693 65.7487 46.3438 65.5664 46.0703C65.3971 45.7839 65.1042 45.6406 64.6875 45.6406C64.4661 45.6406 64.2708 45.6797 64.1016 45.7578C63.9453 45.8229 63.776 45.9271 63.5938 46.0703L63.2031 45.6016C63.5026 45.3542 63.8346 45.1133 64.1992 44.8789C64.5638 44.6315 64.9609 44.4167 65.3906 44.2344C65.8333 44.0521 66.3021 43.9023 66.7969 43.7852C67.2917 43.668 67.8125 43.6094 68.3594 43.6094C69.2057 43.6094 69.8633 43.7266 70.332 43.9609C70.8008 44.1823 71.1458 44.4622 71.3672 44.8008C71.5885 45.1263 71.7188 45.4779 71.7578 45.8555C71.8099 46.2201 71.8359 46.5456 71.8359 46.832V72.2812ZM83.0078 72.2422C83.0078 72.4115 82.9753 72.6198 82.9102 72.8672C82.8581 73.1016 82.7214 73.3294 82.5 73.5508C82.2917 73.7591 81.9857 73.9349 81.582 74.0781C81.1784 74.2344 80.6315 74.3125 79.9414 74.3125C79.2513 74.3125 78.7109 74.2279 78.3203 74.0586C77.9297 73.9023 77.6367 73.7135 77.4414 73.4922C77.2461 73.2708 77.1224 73.043 77.0703 72.8086C77.0312 72.5742 77.0117 72.3854 77.0117 72.2422V57.1641C77.0117 56.7865 76.9206 56.4609 76.7383 56.1875C76.569 55.901 76.276 55.7578 75.8594 55.7578C75.638 55.7578 75.4492 55.7969 75.293 55.875C75.1367 55.9531 74.9674 56.0638 74.7852 56.207L74.375 55.7188C74.6745 55.4714 75.0065 55.2305 75.3711 54.9961C75.7487 54.7487 76.1523 54.5339 76.582 54.3516C77.0117 54.1693 77.474 54.0195 77.9688 53.9023C78.4635 53.7852 78.9844 53.7266 79.5312 53.7266C80.3776 53.7266 81.0352 53.8438 81.5039 54.0781C81.9727 54.2995 82.3177 54.5794 82.5391 54.918C82.7604 55.2435 82.8906 55.5951 82.9297 55.9727C82.9818 56.3503 83.0078 56.6823 83.0078 56.9688V72.2422ZM76.4062 49.2734C76.4062 48.9089 76.4844 48.5638 76.6406 48.2383C76.8099 47.8997 77.0378 47.6068 77.3242 47.3594C77.6237 47.112 77.9622 46.9167 78.3398 46.7734C78.7305 46.6302 79.1536 46.5586 79.6094 46.5586C80.0521 46.5586 80.4622 46.6302 80.8398 46.7734C81.2305 46.9167 81.569 47.112 81.8555 47.3594C82.1419 47.6068 82.3633 47.8997 82.5195 48.2383C82.6888 48.5638 82.7734 48.9089 82.7734 49.2734C82.7734 49.651 82.6888 50.0026 82.5195 50.3281C82.3633 50.6536 82.1419 50.9401 81.8555 51.1875C81.569 51.4219 81.2305 51.6107 80.8398 51.7539C80.4622 51.8971 80.0521 51.9688 79.6094 51.9688C79.1536 51.9688 78.7305 51.8971 78.3398 51.7539C77.9622 51.6107 77.6237 51.4219 77.3242 51.1875C77.0378 50.9401 76.8099 50.6536 76.6406 50.3281C76.4844 50.0026 76.4062 49.651 76.4062 49.2734ZM99.4336 64.2734C99.4336 62.6328 99.3555 61.3242 99.1992 60.3477C99.056 59.3581 98.8607 58.6094 98.6133 58.1016C98.3659 57.5807 98.0924 57.2422 97.793 57.0859C97.4935 56.9167 97.1875 56.832 96.875 56.832C96.4974 56.832 96.1589 56.9362 95.8594 57.1445C95.5729 57.3398 95.319 57.5677 95.0977 57.8281C94.8893 58.0885 94.707 58.349 94.5508 58.6094C94.4076 58.8698 94.2839 59.0651 94.1797 59.1953V72.2422C94.1797 72.4115 94.1536 72.6198 94.1016 72.8672C94.0495 73.1016 93.9193 73.3294 93.7109 73.5508C93.5156 73.7591 93.2161 73.9349 92.8125 74.0781C92.4219 74.2344 91.8815 74.3125 91.1914 74.3125C90.5013 74.3125 89.9544 74.2279 89.5508 74.0586C89.1602 73.9023 88.8607 73.7135 88.6523 73.4922C88.444 73.2708 88.3138 73.043 88.2617 72.8086C88.2096 72.5742 88.1836 72.3854 88.1836 72.2422V57.1641C88.1836 56.7865 88.0924 56.4609 87.9102 56.1875C87.7409 55.901 87.4479 55.7578 87.0312 55.7578C86.8099 55.7578 86.6211 55.7969 86.4648 55.875C86.3086 55.9531 86.1393 56.0638 85.957 56.207L85.5469 55.7188C85.8464 55.4714 86.1784 55.2305 86.543 54.9961C86.9206 54.7487 87.3242 54.5339 87.7539 54.3516C88.1836 54.1693 88.6458 54.0195 89.1406 53.9023C89.6354 53.7852 90.1562 53.7266 90.7031 53.7266C91.5495 53.7266 92.207 53.8698 92.6758 54.1562C93.1445 54.4297 93.4896 54.7617 93.7109 55.1523C93.9323 55.543 94.0625 55.9531 94.1016 56.3828C94.1536 56.7995 94.1797 57.151 94.1797 57.4375C94.6615 56.7474 95.2083 56.1289 95.8203 55.582C96.0677 55.3477 96.3411 55.1198 96.6406 54.8984C96.9531 54.6771 97.2786 54.4818 97.6172 54.3125C97.9688 54.1302 98.3333 53.987 98.7109 53.8828C99.1016 53.7786 99.4987 53.7266 99.9023 53.7266C100.788 53.7266 101.569 53.8958 102.246 54.2344C102.936 54.5729 103.516 55.1393 103.984 55.9336C104.453 56.7279 104.811 57.7826 105.059 59.0977C105.306 60.3997 105.43 62.0208 105.43 63.9609C105.43 65.849 105.26 67.4896 104.922 68.8828C104.583 70.276 104.141 71.4609 103.594 72.4375C103.047 73.4141 102.428 74.2083 101.738 74.8203C101.048 75.4453 100.352 75.9336 99.6484 76.2852C98.9453 76.6367 98.2682 76.8776 97.6172 77.0078C96.9792 77.151 96.4258 77.2292 95.957 77.2422L95.7422 76.4414C96.1328 76.3503 96.4909 76.207 96.8164 76.0117C97.1549 75.8164 97.4609 75.5299 97.7344 75.1523C98.0078 74.7747 98.2487 74.2995 98.457 73.7266C98.6654 73.1406 98.8411 72.4115 98.9844 71.5391C99.1406 70.6667 99.2513 69.638 99.3164 68.4531C99.3945 67.2552 99.4336 65.862 99.4336 64.2734ZM108.633 61.7148C108.633 60.3867 108.861 59.2279 109.316 58.2383C109.785 57.2357 110.41 56.4023 111.191 55.7383C111.973 55.0612 112.878 54.5599 113.906 54.2344C114.935 53.8958 116.016 53.7266 117.148 53.7266C118.281 53.7266 119.355 53.8763 120.371 54.1758C121.387 54.4753 122.285 54.9375 123.066 55.5625C123.314 55.1849 123.516 54.7878 123.672 54.3711C123.828 53.9544 123.906 53.5378 123.906 53.1211C123.906 52.5742 123.757 52.138 123.457 51.8125C123.171 51.487 122.799 51.3242 122.344 51.3242V50.7578C122.63 50.6667 122.884 50.5885 123.105 50.5234C123.327 50.4453 123.529 50.3867 123.711 50.3477C123.893 50.3086 124.076 50.2826 124.258 50.2695C124.44 50.2435 124.642 50.2305 124.863 50.2305C125.475 50.2305 125.944 50.4193 126.27 50.7969C126.595 51.1745 126.758 51.6953 126.758 52.3594C126.758 52.75 126.667 53.1406 126.484 53.5312C126.302 53.9089 126.074 54.2734 125.801 54.625C125.527 54.9766 125.221 55.3086 124.883 55.6211C124.557 55.9336 124.245 56.207 123.945 56.4414C124.492 57.0664 124.915 57.7956 125.215 58.6289C125.514 59.4622 125.664 60.4128 125.664 61.4805C125.664 62.8216 125.43 64.0065 124.961 65.0352C124.505 66.0638 123.887 66.9297 123.105 67.6328C122.324 68.3359 121.419 68.8698 120.391 69.2344C119.362 69.5859 118.281 69.7617 117.148 69.7617C116.484 69.7617 115.833 69.7031 115.195 69.5859C114.557 69.4688 113.958 69.2995 113.398 69.0781C113.19 69.2344 113.008 69.4297 112.852 69.6641C112.708 69.8984 112.637 70.1589 112.637 70.4453C112.637 70.9271 112.845 71.2852 113.262 71.5195C113.678 71.7539 114.232 71.9232 114.922 72.0273C115.612 72.1315 116.393 72.1966 117.266 72.2227C118.138 72.2487 119.03 72.2943 119.941 72.3594C120.866 72.4115 121.764 72.5221 122.637 72.6914C123.509 72.8477 124.29 73.1146 124.98 73.4922C125.671 73.8568 126.224 74.3581 126.641 74.9961C127.057 75.6341 127.266 76.4609 127.266 77.4766C127.266 78.2188 127.109 78.8828 126.797 79.4688C126.484 80.0677 126.061 80.5885 125.527 81.0312C125.007 81.487 124.395 81.8711 123.691 82.1836C123.001 82.5091 122.266 82.7695 121.484 82.9648C120.716 83.1732 119.928 83.3229 119.121 83.4141C118.327 83.5052 117.565 83.5508 116.836 83.5508C115.508 83.5508 114.31 83.4792 113.242 83.3359C112.188 83.2057 111.289 82.9974 110.547 82.7109C109.805 82.4245 109.232 82.0534 108.828 81.5977C108.424 81.1419 108.223 80.5951 108.223 79.957C108.223 79.5013 108.327 79.0781 108.535 78.6875C108.743 78.3099 109.017 77.9583 109.355 77.6328C109.707 77.3203 110.098 77.0339 110.527 76.7734C110.957 76.526 111.393 76.2917 111.836 76.0703C111.185 75.7969 110.638 75.3802 110.195 74.8203C109.766 74.2734 109.551 73.5443 109.551 72.6328C109.551 72.151 109.635 71.7083 109.805 71.3047C109.974 70.888 110.189 70.5104 110.449 70.1719C110.723 69.8203 111.016 69.5078 111.328 69.2344C111.654 68.9479 111.966 68.707 112.266 68.5117C111.732 68.1992 111.237 67.8216 110.781 67.3789C110.339 66.9232 109.954 66.4154 109.629 65.8555C109.316 65.2826 109.069 64.651 108.887 63.9609C108.717 63.2708 108.633 62.5221 108.633 61.7148ZM119.785 61.5586C119.785 60.8034 119.746 60.0677 119.668 59.3516C119.59 58.6354 119.453 57.9974 119.258 57.4375C119.062 56.8776 118.796 56.4284 118.457 56.0898C118.118 55.7383 117.682 55.5625 117.148 55.5625C116.615 55.5625 116.178 55.7448 115.84 56.1094C115.501 56.4609 115.234 56.9297 115.039 57.5156C114.844 58.0885 114.707 58.7461 114.629 59.4883C114.551 60.2174 114.512 60.9596 114.512 61.7148C114.512 62.4831 114.551 63.2383 114.629 63.9805C114.707 64.7227 114.844 65.3867 115.039 65.9727C115.234 66.5586 115.501 67.0339 115.84 67.3984C116.178 67.75 116.615 67.9258 117.148 67.9258C117.682 67.9258 118.118 67.737 118.457 67.3594C118.796 66.9818 119.062 66.4935 119.258 65.8945C119.453 65.2826 119.59 64.599 119.668 63.8438C119.746 63.0885 119.785 62.3268 119.785 61.5586ZM122.754 79.0391C122.754 78.6224 122.591 78.2773 122.266 78.0039C121.94 77.7435 121.51 77.5286 120.977 77.3594C120.456 77.2031 119.857 77.0794 119.18 76.9883C118.516 76.9102 117.839 76.8451 117.148 76.793C116.458 76.7539 115.788 76.7148 115.137 76.6758C114.486 76.6367 113.919 76.5846 113.438 76.5195C113.164 76.7148 112.897 76.9232 112.637 77.1445C112.389 77.3789 112.168 77.6198 111.973 77.8672C111.79 78.1276 111.641 78.3945 111.523 78.668C111.406 78.9544 111.348 79.2409 111.348 79.5273C111.348 80.0221 111.491 80.4323 111.777 80.7578C112.064 81.0964 112.448 81.3633 112.93 81.5586C113.424 81.7539 113.991 81.8906 114.629 81.9688C115.28 82.0469 115.964 82.0859 116.68 82.0859C117.63 82.0859 118.483 82.0013 119.238 81.832C119.993 81.6758 120.632 81.4544 121.152 81.168C121.673 80.8945 122.07 80.5755 122.344 80.2109C122.617 79.8464 122.754 79.4557 122.754 79.0391ZM144.922 72.2812C144.922 72.4505 144.889 72.6523 144.824 72.8867C144.772 73.1211 144.635 73.3424 144.414 73.5508C144.206 73.7591 143.893 73.9349 143.477 74.0781C143.073 74.2344 142.526 74.3125 141.836 74.3125C141.146 74.3125 140.605 74.2279 140.215 74.0586C139.824 73.9023 139.531 73.7135 139.336 73.4922C139.154 73.2708 139.036 73.043 138.984 72.8086C138.945 72.5742 138.926 72.3854 138.926 72.2422V47.0469C138.926 46.6693 138.835 46.3438 138.652 46.0703C138.483 45.7839 138.19 45.6406 137.773 45.6406C137.552 45.6406 137.357 45.6797 137.188 45.7578C137.031 45.8229 136.862 45.9271 136.68 46.0703L136.289 45.6016C136.589 45.3542 136.921 45.1133 137.285 44.8789C137.65 44.6315 138.047 44.4167 138.477 44.2344C138.919 44.0521 139.388 43.9023 139.883 43.7852C140.378 43.668 140.898 43.6094 141.445 43.6094C142.292 43.6094 142.949 43.7266 143.418 43.9609C143.887 44.1823 144.232 44.4622 144.453 44.8008C144.674 45.1263 144.805 45.4779 144.844 45.8555C144.896 46.2201 144.922 46.5456 144.922 46.832V72.2812ZM156.094 72.2422C156.094 72.4115 156.061 72.6198 155.996 72.8672C155.944 73.1016 155.807 73.3294 155.586 73.5508C155.378 73.7591 155.072 73.9349 154.668 74.0781C154.264 74.2344 153.717 74.3125 153.027 74.3125C152.337 74.3125 151.797 74.2279 151.406 74.0586C151.016 73.9023 150.723 73.7135 150.527 73.4922C150.332 73.2708 150.208 73.043 150.156 72.8086C150.117 72.5742 150.098 72.3854 150.098 72.2422V57.1641C150.098 56.7865 150.007 56.4609 149.824 56.1875C149.655 55.901 149.362 55.7578 148.945 55.7578C148.724 55.7578 148.535 55.7969 148.379 55.875C148.223 55.9531 148.053 56.0638 147.871 56.207L147.461 55.7188C147.76 55.4714 148.092 55.2305 148.457 54.9961C148.835 54.7487 149.238 54.5339 149.668 54.3516C150.098 54.1693 150.56 54.0195 151.055 53.9023C151.549 53.7852 152.07 53.7266 152.617 53.7266C153.464 53.7266 154.121 53.8438 154.59 54.0781C155.059 54.2995 155.404 54.5794 155.625 54.918C155.846 55.2435 155.977 55.5951 156.016 55.9727C156.068 56.3503 156.094 56.6823 156.094 56.9688V72.2422ZM149.492 49.2734C149.492 48.9089 149.57 48.5638 149.727 48.2383C149.896 47.8997 150.124 47.6068 150.41 47.3594C150.71 47.112 151.048 46.9167 151.426 46.7734C151.816 46.6302 152.24 46.5586 152.695 46.5586C153.138 46.5586 153.548 46.6302 153.926 46.7734C154.316 46.9167 154.655 47.112 154.941 47.3594C155.228 47.6068 155.449 47.8997 155.605 48.2383C155.775 48.5638 155.859 48.9089 155.859 49.2734C155.859 49.651 155.775 50.0026 155.605 50.3281C155.449 50.6536 155.228 50.9401 154.941 51.1875C154.655 51.4219 154.316 51.6107 153.926 51.7539C153.548 51.8971 153.138 51.9688 152.695 51.9688C152.24 51.9688 151.816 51.8971 151.426 51.7539C151.048 51.6107 150.71 51.4219 150.41 51.1875C150.124 50.9401 149.896 50.6536 149.727 50.3281C149.57 50.0026 149.492 49.651 149.492 49.2734ZM167.305 55.2891C167.005 55.2891 166.719 55.3281 166.445 55.4062C166.185 55.4844 165.951 55.6146 165.742 55.7969C165.534 55.9661 165.371 56.1875 165.254 56.4609C165.137 56.7214 165.078 57.0339 165.078 57.3984C165.078 57.9062 165.26 58.4141 165.625 58.9219C166.003 59.4167 166.465 59.9375 167.012 60.4844C167.572 61.0182 168.171 61.5781 168.809 62.1641C169.46 62.737 170.059 63.349 170.605 64C171.165 64.638 171.628 65.3216 171.992 66.0508C172.37 66.7799 172.559 67.5612 172.559 68.3945C172.559 69.332 172.396 70.1654 172.07 70.8945C171.758 71.6237 171.302 72.2422 170.703 72.75C170.117 73.2578 169.401 73.6484 168.555 73.9219C167.721 74.1823 166.79 74.3125 165.762 74.3125C164.863 74.3125 164.049 74.1888 163.32 73.9414C162.591 73.681 161.94 73.3685 161.367 73.0039C160.807 72.6263 160.326 72.2292 159.922 71.8125C159.518 71.3958 159.206 71.0182 158.984 70.6797L159.668 70.1914C159.837 70.3867 160.052 70.6016 160.312 70.8359C160.573 71.0573 160.859 71.2656 161.172 71.4609C161.497 71.6562 161.842 71.819 162.207 71.9492C162.572 72.0664 162.943 72.125 163.32 72.125C164.258 72.125 165.026 71.9036 165.625 71.4609C166.224 71.0052 166.523 70.3346 166.523 69.4492C166.523 68.9544 166.361 68.4466 166.035 67.9258C165.71 67.3919 165.299 66.8451 164.805 66.2852C164.31 65.7253 163.776 65.1458 163.203 64.5469C162.63 63.9479 162.096 63.3294 161.602 62.6914C161.107 62.0534 160.697 61.3958 160.371 60.7188C160.046 60.0417 159.883 59.3385 159.883 58.6094C159.883 57.7891 160.046 57.0729 160.371 56.4609C160.71 55.849 161.152 55.3411 161.699 54.9375C162.259 54.5339 162.891 54.2344 163.594 54.0391C164.31 53.8307 165.046 53.7266 165.801 53.7266C166.673 53.7266 167.467 53.8047 168.184 53.9609C168.9 54.1172 169.512 54.3581 170.02 54.6836C170.54 54.9961 170.938 55.3932 171.211 55.875C171.497 56.3568 171.641 56.9167 171.641 57.5547C171.641 58.0495 171.478 58.4792 171.152 58.8438C170.827 59.2083 170.371 59.3906 169.785 59.3906C169.225 59.3906 168.796 59.2734 168.496 59.0391C168.21 58.7917 168.066 58.4596 168.066 58.043C168.066 57.7695 168.132 57.5547 168.262 57.3984C168.405 57.2422 168.561 57.1185 168.73 57.0273C168.9 56.9232 169.049 56.8385 169.18 56.7734C169.323 56.6953 169.395 56.5977 169.395 56.4805C169.395 56.1159 169.199 55.8294 168.809 55.6211C168.418 55.3997 167.917 55.2891 167.305 55.2891ZM182.129 55.4062V69.8398C182.129 70.5299 182.259 71.0117 182.52 71.2852C182.78 71.5456 183.138 71.6758 183.594 71.6758C183.945 71.6758 184.258 71.5781 184.531 71.3828C184.805 71.1875 185.039 70.9661 185.234 70.7188C185.469 70.4453 185.671 70.1263 185.84 69.7617L186.445 70.0352C186.25 70.4518 186.016 70.9076 185.742 71.4023C185.482 71.8971 185.13 72.3594 184.688 72.7891C184.245 73.2057 183.685 73.5573 183.008 73.8438C182.344 74.1302 181.504 74.2734 180.488 74.2734C179.915 74.2734 179.362 74.1888 178.828 74.0195C178.307 73.8503 177.839 73.5833 177.422 73.2188C177.018 72.8542 176.693 72.3984 176.445 71.8516C176.198 71.3047 176.074 70.6471 176.074 69.8789V55.4062H173.887V54C174.251 54 174.759 53.9089 175.41 53.7266C176.061 53.5312 176.725 53.2122 177.402 52.7695C178.092 52.3268 178.73 51.7344 179.316 50.9922C179.902 50.25 180.319 49.332 180.566 48.2383H182.129V54H185.312C186.354 54 186.875 53.8242 186.875 53.4727C186.875 53.3424 186.81 53.2578 186.68 53.2188C186.549 53.1667 186.4 53.1081 186.23 53.043C186.074 52.9648 185.931 52.8607 185.801 52.7305C185.671 52.6003 185.605 52.3854 185.605 52.0859C185.605 51.7214 185.716 51.4349 185.938 51.2266C186.172 51.0182 186.471 50.9141 186.836 50.9141C187.07 50.9141 187.272 50.9661 187.441 51.0703C187.624 51.1615 187.773 51.2917 187.891 51.4609C188.008 51.6172 188.092 51.7995 188.145 52.0078C188.21 52.2161 188.242 52.4245 188.242 52.6328C188.242 53.4792 187.995 54.1562 187.5 54.6641C187.018 55.1589 186.237 55.4062 185.156 55.4062H182.129Z" fill="#CA8A04"/>
</svg>
