<svg width="176" height="83" viewBox="0 0 176 83" fill="none" xmlns="http://www.w3.org/2000/svg">
<path d="M26.5938 27.582H19.9668C19.4746 29.1289 18.9414 30.4707 18.3672 31.6074C17.8047 32.7441 17.1777 33.6875 16.4863 34.4375C15.7949 35.1875 15.0332 35.7441 14.2012 36.1074C13.3809 36.4707 12.4609 36.6523 11.4414 36.6523C10.8789 36.6523 10.3398 36.5996 9.82422 36.4941C9.29688 36.4004 8.83398 36.2656 8.43555 36.0898C8.03711 35.9141 7.7207 35.7031 7.48633 35.457C7.24023 35.2227 7.11719 34.9648 7.11719 34.6836C7.11719 34.4727 7.15234 34.2617 7.22266 34.0508C7.28125 33.8281 7.36914 33.6289 7.48633 33.4531C7.60352 33.2656 7.75 33.1191 7.92578 33.0137C8.08984 32.8965 8.27734 32.8379 8.48828 32.8379C8.67578 32.8379 8.83984 32.9668 8.98047 33.2246C9.12109 33.4824 9.30273 33.7695 9.52539 34.0859C9.73633 34.3906 10.0117 34.6719 10.3516 34.9297C10.6914 35.1875 11.1602 35.3164 11.7578 35.3164C12.3672 35.3164 12.9473 35.1699 13.498 34.877C14.0488 34.584 14.5762 34.127 15.0801 33.5059C15.5957 32.873 16.0879 32.0703 16.5566 31.0977C17.0254 30.125 17.4824 28.9531 17.9277 27.582H13.7793V26.0352H18.3848C18.7715 24.7227 19.1465 23.3984 19.5098 22.0625C19.8848 20.7266 20.2363 19.4434 20.5645 18.2129C20.8926 16.9824 21.1855 15.834 21.4434 14.7676C21.7012 13.6895 21.918 12.752 22.0938 11.9551C21.8594 11.2988 21.5371 10.8594 21.127 10.6367C20.7285 10.4141 20.1895 10.3027 19.5098 10.3027C18.877 10.3027 18.2207 10.4023 17.541 10.6016C16.873 10.7891 16.2637 11.0645 15.7129 11.4277C15.1621 11.7793 14.7051 12.2188 14.3418 12.7461C13.9902 13.2617 13.8145 13.8418 13.8145 14.4863C13.8145 14.8613 13.8613 15.1602 13.9551 15.3828C14.0605 15.6055 14.1777 15.7754 14.3066 15.8926C14.4473 15.998 14.582 16.0684 14.7109 16.1035C14.8398 16.127 14.9395 16.1387 15.0098 16.1387C15.291 16.1387 15.5254 16.0918 15.7129 15.998C15.9121 15.8926 16.082 15.7871 16.2227 15.6816C16.375 15.5645 16.5215 15.459 16.6621 15.3652C16.8027 15.2598 16.9609 15.207 17.1367 15.207C17.2656 15.207 17.4062 15.2422 17.5586 15.3125C17.7227 15.3711 17.8691 15.4707 17.998 15.6113C18.1387 15.752 18.2559 15.9395 18.3496 16.1738C18.4434 16.3965 18.4902 16.6719 18.4902 17C18.4902 17.4688 18.3965 17.873 18.209 18.2129C18.0332 18.5527 17.7988 18.8398 17.5059 19.0742C17.2246 19.2969 16.8965 19.4668 16.5215 19.584C16.1582 19.6895 15.7949 19.7422 15.4316 19.7422C14.8691 19.7422 14.3594 19.6426 13.9023 19.4434C13.457 19.2324 13.0762 18.9512 12.7598 18.5996C12.4434 18.248 12.2031 17.8379 12.0391 17.3691C11.875 16.9004 11.793 16.4082 11.793 15.8926C11.793 15.1191 11.9219 14.4102 12.1797 13.7656C12.4375 13.1094 12.7949 12.5176 13.252 11.9902C13.709 11.4512 14.248 10.9824 14.8691 10.584C15.4902 10.1738 16.1582 9.83398 16.873 9.56445C17.5996 9.2832 18.3555 9.07227 19.1406 8.93164C19.9258 8.79102 20.7168 8.7207 21.5137 8.7207C22.6387 8.7207 23.5879 8.81445 24.3613 9.00195C25.1465 9.17773 25.8027 9.44727 26.3301 9.81055C26.8574 10.1621 27.2793 10.6133 27.5957 11.1641C27.9238 11.7031 28.1934 12.3301 28.4043 13.0449L32.1836 26.0352H35.998V27.582H32.6055L33.9766 32.1875C34.0234 32.3633 34.0703 32.5273 34.1172 32.6797C34.1641 32.832 34.2168 32.9668 34.2754 33.084C34.3457 33.1895 34.4277 33.2773 34.5215 33.3477C34.627 33.418 34.7559 33.4531 34.9082 33.4531C35.2363 33.4531 35.541 33.4004 35.8223 33.2949C36.1035 33.1777 36.3496 33.0605 36.5605 32.9434L36.8594 33.5938C36.6484 33.7461 36.3789 33.9219 36.0508 34.1211C35.7344 34.3086 35.3652 34.4902 34.9434 34.666C34.5332 34.8418 34.0762 34.9883 33.5723 35.1055C33.0684 35.2227 32.5293 35.2812 31.9551 35.2812C31.1582 35.2812 30.5137 35.1816 30.0215 34.9824C29.541 34.7832 29.1602 34.5371 28.8789 34.2441C28.6094 33.9512 28.4102 33.6406 28.2812 33.3125C28.1641 32.9844 28.0703 32.6973 28 32.4512L26.5938 27.582ZM23.1836 15.6992C22.7031 17.6562 22.2344 19.4961 21.7773 21.2188C21.332 22.9414 20.8867 24.5469 20.4414 26.0352H26.1719L23.1836 15.6992ZM66.6191 22.9062H59.6758V32.6973C59.6758 33.5996 59.4355 34.2559 58.9551 34.666C58.4863 35.0762 57.7656 35.2812 56.793 35.2812C55.8086 35.2812 55.082 35.0762 54.6133 34.666C54.1445 34.2559 53.9102 33.5996 53.9102 32.6973V22.9062H51.168V21.3594H53.9102V10.3027C53.5352 10.3379 53.1016 10.4082 52.6094 10.5137C52.1289 10.6074 51.6309 10.748 51.1152 10.9355C50.6113 11.1113 50.1133 11.3223 49.6211 11.5684C49.1289 11.8145 48.6895 12.1016 48.3027 12.4297C47.916 12.7578 47.5996 13.127 47.3535 13.5371C47.1191 13.9355 47.002 14.3691 47.002 14.8379C47.002 15.2129 47.0488 15.5117 47.1426 15.7344C47.248 15.957 47.3652 16.127 47.4941 16.2441C47.623 16.3496 47.752 16.4199 47.8809 16.4551C48.0215 16.4785 48.1211 16.4902 48.1797 16.4902C48.4727 16.4902 48.7129 16.4434 48.9004 16.3496C49.0879 16.2441 49.2578 16.1387 49.4102 16.0332C49.5625 15.916 49.7031 15.8105 49.832 15.7168C49.9727 15.6113 50.1309 15.5586 50.3066 15.5586C50.4473 15.5586 50.5938 15.5938 50.7461 15.6641C50.9102 15.7227 51.0566 15.8223 51.1855 15.9629C51.3262 16.1035 51.4434 16.291 51.5371 16.5254C51.6309 16.748 51.6777 17.0234 51.6777 17.3516C51.6777 17.8203 51.584 18.2305 51.3965 18.582C51.2207 18.9219 50.9863 19.2031 50.6934 19.4258C50.4121 19.6484 50.084 19.8184 49.709 19.9355C49.3457 20.041 48.9824 20.0938 48.6191 20.0938C48.0566 20.0938 47.5469 20 47.0898 19.8125C46.6445 19.6133 46.2637 19.3438 45.9473 19.0039C45.6309 18.6641 45.3906 18.2715 45.2266 17.8262C45.0625 17.3691 44.9805 16.877 44.9805 16.3496C44.9805 14.9785 45.3555 13.8125 46.1055 12.8516C46.8672 11.8906 47.9043 11.1055 49.2168 10.4961C50.5293 9.875 52.0586 9.42383 53.8047 9.14258C55.5508 8.86133 57.4199 8.7207 59.4121 8.7207C60.2207 8.7207 61.0645 8.73242 61.9434 8.75586C62.8223 8.76758 63.6484 8.79102 64.4219 8.82617C65.207 8.86133 65.8984 8.90234 66.4961 8.94922C67.0938 8.99609 67.5156 9.04883 67.7617 9.10742C67.9961 9.16602 68.1836 9.23047 68.3242 9.30078C68.4648 9.37109 68.5703 9.45313 68.6406 9.54688C68.7109 9.64062 68.7578 9.75195 68.7812 9.88086C68.8047 9.99805 68.8164 10.1387 68.8164 10.3027C68.8164 10.4434 68.7988 10.6016 68.7637 10.7773C68.7285 10.9414 68.6758 11.0996 68.6055 11.252C68.5352 11.3926 68.4473 11.5156 68.3418 11.6211C68.2363 11.7266 68.1074 11.7793 67.9551 11.7793C67.8613 11.7793 67.7559 11.7383 67.6387 11.6562C67.5332 11.5742 67.375 11.4687 67.1641 11.3398C66.9648 11.2109 66.6895 11.0762 66.3379 10.9355C65.998 10.7949 65.5352 10.6602 64.9492 10.5312C64.375 10.4023 63.6543 10.2969 62.7871 10.2148C61.9316 10.1328 60.8945 10.0918 59.6758 10.0918V21.3594H66.6191V22.9062ZM79.0996 14.293C79.0996 14.7031 79.1641 15.043 79.293 15.3125C79.4219 15.5703 79.5801 15.793 79.7676 15.9805C79.9668 16.1562 80.1777 16.3027 80.4004 16.4199C80.623 16.5371 80.8281 16.6602 81.0156 16.7891C81.2148 16.918 81.3789 17.0645 81.5078 17.2285C81.6367 17.3926 81.7012 17.6035 81.7012 17.8613C81.7012 18.2949 81.5488 18.6289 81.2441 18.8633C80.9395 19.0859 80.5879 19.1973 80.1895 19.1973C79.8145 19.1973 79.4629 19.0801 79.1348 18.8457C78.8184 18.6113 78.5371 18.2949 78.291 17.8965C78.0566 17.4863 77.8691 17.0117 77.7285 16.4727C77.5879 15.9219 77.5176 15.3418 77.5176 14.7324C77.5176 13.9824 77.6348 13.2676 77.8691 12.5879C78.1035 11.8965 78.4492 11.293 78.9062 10.7773C79.3633 10.25 79.9258 9.83398 80.5938 9.5293C81.2734 9.22461 82.0469 9.07227 82.9141 9.07227C83.5 9.07227 84.1387 9.17188 84.8301 9.37109C85.5215 9.55859 86.207 9.86328 86.8867 10.2852C87.5781 10.707 88.2402 11.252 88.873 11.9199C89.5176 12.5879 90.0859 13.4023 90.5781 14.3633C91.082 15.3242 91.4805 16.4375 91.7734 17.7031C92.0664 18.9688 92.2129 20.4043 92.2129 22.0098C92.2129 24.084 91.9023 25.9414 91.2812 27.582C90.6719 29.2227 89.8398 30.6172 88.7852 31.7656C87.7422 32.9023 86.5293 33.7754 85.1465 34.3848C83.7637 34.9824 82.2988 35.2812 80.752 35.2812C79.2168 35.2812 77.752 35.0176 76.3574 34.4902C74.9629 33.9629 73.7324 33.1602 72.666 32.082C71.6113 30.9922 70.7676 29.6152 70.1348 27.9512C69.5137 26.2754 69.2031 24.2949 69.2031 22.0098C69.2031 20.2402 69.4375 18.6289 69.9062 17.1758C70.3867 15.7227 71.0254 14.4336 71.8223 13.3086C72.6309 12.1836 73.5684 11.2402 74.6348 10.4785C75.7012 9.70508 76.832 9.11914 78.0273 8.7207L78.625 9.47656C78.2852 9.81641 77.9688 10.168 77.6758 10.5312C77.3828 10.8945 77.1133 11.3105 76.8672 11.7793C76.6211 12.2363 76.3984 12.7695 76.1992 13.3789C76.0117 13.9766 75.8535 14.6855 75.7246 15.5059C75.5957 16.3145 75.4961 17.252 75.4258 18.3184C75.3555 19.3848 75.3203 20.6152 75.3203 22.0098C75.3203 23.8145 75.4141 25.3555 75.6016 26.6328C75.8008 27.9102 76.0527 28.9824 76.3574 29.8496C76.6738 30.7051 77.0254 31.3906 77.4121 31.9062C77.8105 32.4102 78.209 32.791 78.6074 33.0488C79.0059 33.3066 79.3926 33.4766 79.7676 33.5586C80.1426 33.6289 80.4707 33.6641 80.752 33.6641C81.0332 33.6641 81.3555 33.6289 81.7188 33.5586C82.0938 33.4766 82.4746 33.3066 82.8613 33.0488C83.2598 32.791 83.6523 32.4102 84.0391 31.9062C84.4258 31.3906 84.7656 30.7051 85.0586 29.8496C85.3633 28.9824 85.6094 27.9102 85.7969 26.6328C85.9844 25.3555 86.0781 23.8145 86.0781 22.0098C86.0781 20.4277 86.0078 19.0508 85.8672 17.8789C85.7266 16.707 85.5391 15.7051 85.3047 14.873C85.082 14.041 84.8184 13.3613 84.5137 12.834C84.2207 12.2949 83.9102 11.873 83.582 11.5684C83.2656 11.252 82.9434 11.0352 82.6152 10.918C82.2988 10.8008 82.0059 10.7422 81.7363 10.7422C81.3145 10.7422 80.9395 10.8418 80.6113 11.041C80.2832 11.2402 80.0078 11.5098 79.7852 11.8496C79.5625 12.1777 79.3926 12.5586 79.2754 12.9922C79.1582 13.4141 79.0996 13.8477 79.0996 14.293ZM105.01 14.293C105.01 14.7031 105.074 15.043 105.203 15.3125C105.332 15.5703 105.49 15.793 105.678 15.9805C105.877 16.1562 106.088 16.3027 106.311 16.4199C106.533 16.5371 106.738 16.6602 106.926 16.7891C107.125 16.918 107.289 17.0645 107.418 17.2285C107.547 17.3926 107.611 17.6035 107.611 17.8613C107.611 18.2949 107.459 18.6289 107.154 18.8633C106.85 19.0859 106.498 19.1973 106.1 19.1973C105.725 19.1973 105.373 19.0801 105.045 18.8457C104.729 18.6113 104.447 18.2949 104.201 17.8965C103.967 17.4863 103.779 17.0117 103.639 16.4727C103.498 15.9219 103.428 15.3418 103.428 14.7324C103.428 13.9824 103.545 13.2676 103.779 12.5879C104.014 11.8965 104.359 11.293 104.816 10.7773C105.273 10.25 105.836 9.83398 106.504 9.5293C107.184 9.22461 107.957 9.07227 108.824 9.07227C109.41 9.07227 110.049 9.17188 110.74 9.37109C111.432 9.55859 112.117 9.86328 112.797 10.2852C113.488 10.707 114.15 11.252 114.783 11.9199C115.428 12.5879 115.996 13.4023 116.488 14.3633C116.992 15.3242 117.391 16.4375 117.684 17.7031C117.977 18.9688 118.123 20.4043 118.123 22.0098C118.123 24.084 117.812 25.9414 117.191 27.582C116.582 29.2227 115.75 30.6172 114.695 31.7656C113.652 32.9023 112.439 33.7754 111.057 34.3848C109.674 34.9824 108.209 35.2812 106.662 35.2812C105.127 35.2812 103.662 35.0176 102.268 34.4902C100.873 33.9629 99.6426 33.1602 98.5762 32.082C97.5215 30.9922 96.6777 29.6152 96.0449 27.9512C95.4238 26.2754 95.1133 24.2949 95.1133 22.0098C95.1133 20.2402 95.3477 18.6289 95.8164 17.1758C96.2969 15.7227 96.9355 14.4336 97.7324 13.3086C98.541 12.1836 99.4785 11.2402 100.545 10.4785C101.611 9.70508 102.742 9.11914 103.938 8.7207L104.535 9.47656C104.195 9.81641 103.879 10.168 103.586 10.5312C103.293 10.8945 103.023 11.3105 102.777 11.7793C102.531 12.2363 102.309 12.7695 102.109 13.3789C101.922 13.9766 101.764 14.6855 101.635 15.5059C101.506 16.3145 101.406 17.252 101.336 18.3184C101.266 19.3848 101.23 20.6152 101.23 22.0098C101.23 23.8145 101.324 25.3555 101.512 26.6328C101.711 27.9102 101.963 28.9824 102.268 29.8496C102.584 30.7051 102.936 31.3906 103.322 31.9062C103.721 32.4102 104.119 32.791 104.518 33.0488C104.916 33.3066 105.303 33.4766 105.678 33.5586C106.053 33.6289 106.381 33.6641 106.662 33.6641C106.943 33.6641 107.266 33.6289 107.629 33.5586C108.004 33.4766 108.385 33.3066 108.771 33.0488C109.17 32.791 109.562 32.4102 109.949 31.9062C110.336 31.3906 110.676 30.7051 110.969 29.8496C111.273 28.9824 111.52 27.9102 111.707 26.6328C111.895 25.3555 111.988 23.8145 111.988 22.0098C111.988 20.4277 111.918 19.0508 111.777 17.8789C111.637 16.707 111.449 15.7051 111.215 14.873C110.992 14.041 110.729 13.3613 110.424 12.834C110.131 12.2949 109.82 11.873 109.492 11.5684C109.176 11.252 108.854 11.0352 108.525 10.918C108.209 10.8008 107.916 10.7422 107.646 10.7422C107.225 10.7422 106.85 10.8418 106.521 11.041C106.193 11.2402 105.918 11.5098 105.695 11.8496C105.473 12.1777 105.303 12.5586 105.186 12.9922C105.068 13.4141 105.01 13.8477 105.01 14.293ZM134.277 31.0098C134.277 31.5137 134.336 31.9238 134.453 32.2402C134.582 32.5449 134.764 32.7852 134.998 32.9609C135.232 33.1367 135.525 33.2598 135.877 33.3301C136.24 33.3887 136.662 33.418 137.143 33.418C137.916 33.418 138.613 33.3418 139.234 33.1895C139.855 33.0254 140.4 32.8496 140.869 32.6621C141.338 32.4629 141.73 32.2812 142.047 32.1172C142.375 31.9531 142.627 31.8711 142.803 31.8711C143.025 31.8711 143.201 31.9414 143.33 32.082C143.459 32.2227 143.523 32.4277 143.523 32.6973C143.523 33.166 143.477 33.5059 143.383 33.7168C143.289 33.916 143.096 34.0684 142.803 34.1738C141.736 34.5488 140.535 34.8242 139.199 35C137.863 35.1875 136.352 35.2812 134.664 35.2812C133.41 35.2812 132.385 35.2227 131.588 35.1055C130.791 35 130.164 34.8066 129.707 34.5254C129.25 34.2441 128.934 33.8633 128.758 33.3828C128.594 32.8906 128.512 32.2637 128.512 31.502V11.5332C128.512 11.2754 128.482 11.0703 128.424 10.918C128.365 10.7656 128.283 10.6484 128.178 10.5664C128.072 10.4727 127.943 10.4141 127.791 10.3906C127.65 10.3555 127.492 10.3379 127.316 10.3379C127.059 10.3379 126.736 10.3789 126.35 10.4609C125.975 10.543 125.576 10.666 125.154 10.8301C124.732 10.9941 124.305 11.1992 123.871 11.4453C123.449 11.6797 123.068 11.9492 122.729 12.2539C122.4 12.5586 122.131 12.8984 121.92 13.2734C121.709 13.6484 121.604 14.0527 121.604 14.4863C121.604 14.8613 121.65 15.1602 121.744 15.3828C121.85 15.6055 121.967 15.7754 122.096 15.8926C122.225 15.998 122.354 16.0684 122.482 16.1035C122.623 16.127 122.723 16.1387 122.781 16.1387C123.074 16.1387 123.314 16.0918 123.502 15.998C123.689 15.8926 123.859 15.7871 124.012 15.6816C124.164 15.5645 124.305 15.459 124.434 15.3652C124.574 15.2598 124.732 15.207 124.908 15.207C125.049 15.207 125.195 15.2422 125.348 15.3125C125.512 15.3711 125.658 15.4707 125.787 15.6113C125.928 15.752 126.045 15.9395 126.139 16.1738C126.232 16.3965 126.279 16.6719 126.279 17C126.279 17.4688 126.186 17.873 125.998 18.2129C125.822 18.5527 125.588 18.8398 125.295 19.0742C125.014 19.2969 124.686 19.4668 124.311 19.584C123.947 19.6895 123.584 19.7422 123.221 19.7422C122.658 19.7422 122.148 19.6484 121.691 19.4609C121.246 19.2617 120.865 18.9922 120.549 18.6523C120.232 18.3125 119.992 17.9141 119.828 17.457C119.664 17 119.582 16.5137 119.582 15.998C119.582 15.1895 119.729 14.4512 120.021 13.7832C120.314 13.1035 120.713 12.4941 121.217 11.9551C121.732 11.416 122.33 10.9473 123.01 10.5488C123.701 10.1387 124.445 9.79883 125.242 9.5293C126.039 9.25977 126.871 9.06055 127.738 8.93164C128.605 8.79102 129.473 8.7207 130.34 8.7207C131.301 8.7207 132.045 8.81445 132.572 9.00195C133.111 9.17773 133.504 9.39453 133.75 9.65234C134.008 9.91016 134.16 10.1797 134.207 10.4609C134.254 10.7422 134.277 10.9766 134.277 11.1641V31.0098ZM140.658 17.2109C141.385 16.7188 141.883 16.1973 142.152 15.6465C142.434 15.084 142.574 14.5508 142.574 14.0469C142.574 13.5078 142.422 13.0332 142.117 12.623C141.824 12.2012 141.496 11.8379 141.133 11.5332C140.957 11.3574 140.869 11.1641 140.869 10.9531C140.869 10.707 140.951 10.4551 141.115 10.1973C141.279 9.93945 141.496 9.69922 141.766 9.47656C142.035 9.25391 142.346 9.07227 142.697 8.93164C143.061 8.79102 143.436 8.7207 143.822 8.7207C144.186 8.7207 144.496 8.81445 144.754 9.00195C145.012 9.18945 145.217 9.41797 145.369 9.6875C145.521 9.95703 145.633 10.2441 145.703 10.5488C145.773 10.8418 145.809 11.1055 145.809 11.3398C145.809 12.0312 145.686 12.6875 145.439 13.3086C145.193 13.9297 144.859 14.5156 144.438 15.0664C144.016 15.6172 143.523 16.127 142.961 16.5957C142.41 17.0527 141.824 17.4629 141.203 17.8262L140.658 17.2109ZM154.562 37.5488C155.031 37.5488 155.494 37.4609 155.951 37.2852C156.408 37.1211 156.812 36.8398 157.164 36.4414C157.527 36.0547 157.82 35.5449 158.043 34.9121C158.266 34.2793 158.377 33.5059 158.377 32.5918C158.377 31.6074 158.131 30.6523 157.639 29.7266C157.158 28.8008 156.549 27.8926 155.811 27.002C155.084 26.0996 154.293 25.209 153.438 24.3301C152.594 23.4395 151.803 22.5371 151.064 21.623C150.338 20.6973 149.729 19.748 149.236 18.7754C148.756 17.791 148.516 16.7656 148.516 15.6992C148.516 14.6328 148.709 13.6719 149.096 12.8164C149.494 11.9492 150.027 11.2168 150.695 10.6191C151.375 10.0098 152.16 9.54102 153.051 9.21289C153.953 8.88477 154.914 8.7207 155.934 8.7207C157.023 8.7207 157.99 8.83789 158.834 9.07227C159.689 9.29492 160.41 9.60547 160.996 10.0039C161.594 10.3906 162.045 10.8535 162.35 11.3926C162.654 11.9199 162.807 12.4824 162.807 13.0801C162.807 13.3613 162.766 13.6543 162.684 13.959C162.602 14.252 162.473 14.5215 162.297 14.7676C162.121 15.0137 161.898 15.2188 161.629 15.3828C161.359 15.5469 161.043 15.6289 160.68 15.6289C160.246 15.6289 159.924 15.5 159.713 15.2422C159.514 14.9727 159.361 14.6445 159.256 14.2578C159.162 13.8711 159.08 13.4492 159.01 12.9922C158.939 12.5234 158.828 12.0957 158.676 11.709C158.523 11.3223 158.295 11 157.99 10.7422C157.686 10.4727 157.24 10.3379 156.654 10.3379C156.338 10.3379 156.021 10.4082 155.705 10.5488C155.4 10.6895 155.119 10.9062 154.861 11.1992C154.615 11.4805 154.416 11.8438 154.264 12.2891C154.111 12.7344 154.035 13.2617 154.035 13.8711C154.035 14.5742 154.182 15.2598 154.475 15.9277C154.768 16.5957 155.154 17.2578 155.635 17.9141C156.115 18.5586 156.66 19.209 157.27 19.8652C157.891 20.5098 158.518 21.166 159.15 21.834C159.795 22.4902 160.422 23.1699 161.031 23.873C161.652 24.5645 162.203 25.2852 162.684 26.0352C163.164 26.7852 163.551 27.5703 163.844 28.3906C164.137 29.2109 164.283 30.0723 164.283 30.9746C164.283 32.2988 164.025 33.4824 163.51 34.5254C163.006 35.5566 162.314 36.4238 161.436 37.127C160.568 37.8418 159.549 38.3867 158.377 38.7617C157.205 39.1367 155.957 39.3242 154.633 39.3242C153.438 39.3242 152.377 39.1719 151.451 38.8672C150.537 38.5742 149.764 38.1816 149.131 37.6895C148.498 37.1973 148.018 36.6348 147.689 36.002C147.373 35.3809 147.215 34.7363 147.215 34.0684C147.215 33.7871 147.256 33.4883 147.338 33.1719C147.432 32.8438 147.561 32.5449 147.725 32.2754C147.9 32.0059 148.117 31.7832 148.375 31.6074C148.633 31.4199 148.932 31.3262 149.271 31.3262C149.623 31.3262 149.904 31.4141 150.115 31.5898C150.338 31.7656 150.514 32 150.643 32.293C150.771 32.5859 150.877 32.9199 150.959 33.2949C151.041 33.6699 151.129 34.0508 151.223 34.4375C151.316 34.8242 151.434 35.2051 151.574 35.5801C151.715 35.9551 151.908 36.2891 152.154 36.582C152.4 36.875 152.717 37.1094 153.104 37.2852C153.49 37.4609 153.977 37.5488 154.562 37.5488Z" fill="#6F6F36"/>
<path d="M19.1211 70.2812C19.1211 70.4505 19.0951 70.6523 19.043 70.8867C18.9909 71.1211 18.8607 71.3424 18.6523 71.5508C18.457 71.7591 18.1576 71.9349 17.7539 72.0781C17.3503 72.2344 16.8034 72.3125 16.1133 72.3125C15.4232 72.3125 14.8763 72.2279 14.4727 72.0586C14.082 71.9023 13.7826 71.7135 13.5742 71.4922C13.3789 71.2708 13.2552 71.043 13.2031 70.8086C13.151 70.5742 13.125 70.3854 13.125 70.2422V56.4336C13.125 56.2513 13.099 56.069 13.0469 55.8867C12.9948 55.6914 12.9167 55.5156 12.8125 55.3594C12.7083 55.2031 12.5781 55.0794 12.4219 54.9883C12.2656 54.8841 12.0833 54.832 11.875 54.832C11.5234 54.832 11.1784 54.9362 10.8398 55.1445C10.5013 55.3398 10.1823 55.5677 9.88281 55.8281C9.59635 56.0885 9.34245 56.349 9.12109 56.6094C8.91276 56.8698 8.76302 57.0651 8.67188 57.1953V70.2812C8.67188 70.4505 8.64583 70.6523 8.59375 70.8867C8.54167 71.1211 8.41146 71.3424 8.20312 71.5508C8.00781 71.7591 7.70833 71.9349 7.30469 72.0781C6.91406 72.2344 6.3737 72.3125 5.68359 72.3125C4.99349 72.3125 4.44661 72.2279 4.04297 72.0586C3.65234 71.9023 3.35286 71.7135 3.14453 71.4922C2.9362 71.2708 2.80599 71.043 2.75391 70.8086C2.70182 70.5742 2.67578 70.3854 2.67578 70.2422V55.1641C2.67578 54.7865 2.58464 54.4609 2.40234 54.1875C2.23307 53.901 1.9401 53.7578 1.52344 53.7578C1.30208 53.7578 1.11328 53.7969 0.957031 53.875C0.800781 53.9531 0.63151 54.0638 0.449219 54.207L0.0390625 53.7188C0.338542 53.4714 0.670573 53.2305 1.03516 52.9961C1.41276 52.7487 1.81641 52.5339 2.24609 52.3516C2.67578 52.1693 3.13802 52.0195 3.63281 51.9023C4.1276 51.7852 4.64844 51.7266 5.19531 51.7266C6.04167 51.7266 6.69922 51.8698 7.16797 52.1562C7.63672 52.4297 7.98177 52.7617 8.20312 53.1523C8.42448 53.543 8.55469 53.9531 8.59375 54.3828C8.64583 54.7995 8.67188 55.151 8.67188 55.4375C9.28385 54.7474 9.94141 54.1289 10.6445 53.582C10.931 53.3477 11.2435 53.1198 11.582 52.8984C11.9336 52.6771 12.2917 52.4818 12.6562 52.3125C13.0208 52.1302 13.3984 51.987 13.7891 51.8828C14.1797 51.7786 14.5703 51.7266 14.9609 51.7266C15.7161 51.7266 16.3607 51.8633 16.8945 52.1367C17.4284 52.4102 17.8581 52.7422 18.1836 53.1328C18.5091 53.5104 18.7435 53.9141 18.8867 54.3438C19.043 54.7604 19.1211 55.125 19.1211 55.4375C19.7461 54.7474 20.4036 54.1289 21.0938 53.582C21.3802 53.3477 21.6927 53.1198 22.0312 52.8984C22.3698 52.6771 22.7214 52.4818 23.0859 52.3125C23.4635 52.1302 23.8411 51.987 24.2188 51.8828C24.6094 51.7786 25 51.7266 25.3906 51.7266C26.1458 51.7266 26.7904 51.8698 27.3242 52.1562C27.8581 52.4297 28.2878 52.7943 28.6133 53.25C28.9388 53.7057 29.1732 54.2201 29.3164 54.793C29.4727 55.3659 29.5508 55.9388 29.5508 56.5117V68.6016C29.5508 68.7188 29.5573 68.849 29.5703 68.9922C29.5833 69.1224 29.6159 69.2526 29.668 69.3828C29.7201 69.5 29.7982 69.5977 29.9023 69.6758C30.0195 69.7539 30.1693 69.793 30.3516 69.793C30.599 69.793 30.8203 69.7083 31.0156 69.5391C31.2109 69.3568 31.3932 69.1745 31.5625 68.9922L32.0312 69.4023C31.849 69.6758 31.6081 69.9818 31.3086 70.3203C31.0091 70.6458 30.651 70.9583 30.2344 71.2578C29.8307 71.5573 29.3555 71.8047 28.8086 72C28.2747 72.2083 27.6693 72.3125 26.9922 72.3125C26.4193 72.3125 25.918 72.2344 25.4883 72.0781C25.0716 71.9349 24.7135 71.7396 24.4141 71.4922C24.1276 71.2318 23.9128 70.9323 23.7695 70.5938C23.6263 70.2422 23.5547 69.8711 23.5547 69.4805V56.4336C23.5547 56.2513 23.5286 56.069 23.4766 55.8867C23.4245 55.6914 23.3464 55.5156 23.2422 55.3594C23.151 55.2031 23.0273 55.0794 22.8711 54.9883C22.7148 54.8841 22.5326 54.832 22.3242 54.832C21.9727 54.832 21.6211 54.9362 21.2695 55.1445C20.931 55.3398 20.612 55.5677 20.3125 55.8281C20.026 56.0885 19.7786 56.349 19.5703 56.6094C19.362 56.8698 19.2122 57.0651 19.1211 57.1953V70.2812ZM39.7461 63.0352C39.7461 63.4518 39.8047 63.9076 39.9219 64.4023C40.0521 64.8841 40.2344 65.3724 40.4688 65.8672C40.7031 66.362 40.9896 66.8372 41.3281 67.293C41.6797 67.7357 42.0768 68.1328 42.5195 68.4844C42.9753 68.8359 43.4766 69.1159 44.0234 69.3242C44.5703 69.5326 45.1693 69.6367 45.8203 69.6367C46.276 69.6367 46.6992 69.5846 47.0898 69.4805C47.4805 69.3763 47.8451 69.2331 48.1836 69.0508C48.5221 68.8685 48.8477 68.6602 49.1602 68.4258C49.4727 68.1784 49.7852 67.918 50.0977 67.6445L50.5859 68.1133C50.2865 68.5169 49.9023 68.9596 49.4336 69.4414C48.9648 69.9232 48.3984 70.3789 47.7344 70.8086C47.0703 71.2253 46.2956 71.5768 45.4102 71.8633C44.5247 72.1367 43.5156 72.2734 42.3828 72.2734C41.25 72.2734 40.1432 72.0716 39.0625 71.668C37.9948 71.2513 37.0443 70.6328 36.2109 69.8125C35.3776 68.9922 34.707 67.9701 34.1992 66.7461C33.7044 65.5221 33.457 64.0898 33.457 62.4492C33.457 61.2643 33.6068 60.1771 33.9062 59.1875C34.2057 58.1979 34.6094 57.306 35.1172 56.5117C35.638 55.7174 36.237 55.0208 36.9141 54.4219C37.6042 53.8229 38.3268 53.3281 39.082 52.9375C39.8372 52.5339 40.6055 52.2344 41.3867 52.0391C42.181 51.8307 42.9427 51.7266 43.6719 51.7266C44.6354 51.7266 45.4753 51.8307 46.1914 52.0391C46.9076 52.2474 47.5 52.5273 47.9688 52.8789C48.4505 53.2305 48.8086 53.6406 49.043 54.1094C49.2773 54.5651 49.3945 55.0469 49.3945 55.5547C49.3945 56.1667 49.2188 56.7201 48.8672 57.2148C48.5156 57.6966 48.0469 58.1198 47.4609 58.4844L39.7461 63.0352ZM43.6719 59.0703C43.8411 58.9661 43.9779 58.8685 44.082 58.7773C44.1992 58.6732 44.2904 58.556 44.3555 58.4258C44.4206 58.2826 44.4661 58.1133 44.4922 57.918C44.5312 57.7096 44.5508 57.4557 44.5508 57.1562C44.5508 56.8307 44.5117 56.4727 44.4336 56.082C44.3685 55.6784 44.2513 55.3008 44.082 54.9492C43.9128 54.5977 43.6979 54.3047 43.4375 54.0703C43.1771 53.8359 42.8646 53.7188 42.5 53.7188C42.0312 53.7188 41.6276 53.862 41.2891 54.1484C40.9635 54.4219 40.6901 54.7799 40.4688 55.2227C40.2604 55.6654 40.0911 56.1732 39.9609 56.7461C39.8438 57.306 39.7526 57.8724 39.6875 58.4453C39.6224 59.0182 39.5833 59.5716 39.5703 60.1055C39.5573 60.6263 39.5508 61.069 39.5508 61.4336L43.6719 59.0703ZM59.4922 53.2891C59.1927 53.2891 58.9062 53.3281 58.6328 53.4062C58.3724 53.4844 58.138 53.6146 57.9297 53.7969C57.7214 53.9661 57.5586 54.1875 57.4414 54.4609C57.3242 54.7214 57.2656 55.0339 57.2656 55.3984C57.2656 55.9062 57.4479 56.4141 57.8125 56.9219C58.1901 57.4167 58.6523 57.9375 59.1992 58.4844C59.7591 59.0182 60.3581 59.5781 60.9961 60.1641C61.6471 60.737 62.2461 61.349 62.793 62C63.3529 62.638 63.8151 63.3216 64.1797 64.0508C64.5573 64.7799 64.7461 65.5612 64.7461 66.3945C64.7461 67.332 64.5833 68.1654 64.2578 68.8945C63.9453 69.6237 63.4896 70.2422 62.8906 70.75C62.3047 71.2578 61.5885 71.6484 60.7422 71.9219C59.9089 72.1823 58.9779 72.3125 57.9492 72.3125C57.0508 72.3125 56.237 72.1888 55.5078 71.9414C54.7786 71.681 54.1276 71.3685 53.5547 71.0039C52.9948 70.6263 52.513 70.2292 52.1094 69.8125C51.7057 69.3958 51.3932 69.0182 51.1719 68.6797L51.8555 68.1914C52.0247 68.3867 52.2396 68.6016 52.5 68.8359C52.7604 69.0573 53.0469 69.2656 53.3594 69.4609C53.6849 69.6562 54.0299 69.819 54.3945 69.9492C54.7591 70.0664 55.1302 70.125 55.5078 70.125C56.4453 70.125 57.2135 69.9036 57.8125 69.4609C58.4115 69.0052 58.7109 68.3346 58.7109 67.4492C58.7109 66.9544 58.5482 66.4466 58.2227 65.9258C57.8971 65.3919 57.487 64.8451 56.9922 64.2852C56.4974 63.7253 55.9635 63.1458 55.3906 62.5469C54.8177 61.9479 54.2839 61.3294 53.7891 60.6914C53.2943 60.0534 52.8841 59.3958 52.5586 58.7188C52.2331 58.0417 52.0703 57.3385 52.0703 56.6094C52.0703 55.7891 52.2331 55.0729 52.5586 54.4609C52.8971 53.849 53.3398 53.3411 53.8867 52.9375C54.4466 52.5339 55.0781 52.2344 55.7812 52.0391C56.4974 51.8307 57.2331 51.7266 57.9883 51.7266C58.8607 51.7266 59.6549 51.8047 60.3711 51.9609C61.0872 52.1172 61.6992 52.3581 62.207 52.6836C62.7279 52.9961 63.125 53.3932 63.3984 53.875C63.6849 54.3568 63.8281 54.9167 63.8281 55.5547C63.8281 56.0495 63.6654 56.4792 63.3398 56.8438C63.0143 57.2083 62.5586 57.3906 61.9727 57.3906C61.4128 57.3906 60.9831 57.2734 60.6836 57.0391C60.3971 56.7917 60.2539 56.4596 60.2539 56.043C60.2539 55.7695 60.319 55.5547 60.4492 55.3984C60.5924 55.2422 60.7487 55.1185 60.918 55.0273C61.0872 54.9232 61.237 54.8385 61.3672 54.7734C61.5104 54.6953 61.582 54.5977 61.582 54.4805C61.582 54.1159 61.3867 53.8294 60.9961 53.6211C60.6055 53.3997 60.1042 53.2891 59.4922 53.2891ZM74.2578 53.2891C73.9583 53.2891 73.6719 53.3281 73.3984 53.4062C73.138 53.4844 72.9036 53.6146 72.6953 53.7969C72.487 53.9661 72.3242 54.1875 72.207 54.4609C72.0898 54.7214 72.0312 55.0339 72.0312 55.3984C72.0312 55.9062 72.2135 56.4141 72.5781 56.9219C72.9557 57.4167 73.418 57.9375 73.9648 58.4844C74.5247 59.0182 75.1237 59.5781 75.7617 60.1641C76.4128 60.737 77.0117 61.349 77.5586 62C78.1185 62.638 78.5807 63.3216 78.9453 64.0508C79.3229 64.7799 79.5117 65.5612 79.5117 66.3945C79.5117 67.332 79.349 68.1654 79.0234 68.8945C78.7109 69.6237 78.2552 70.2422 77.6562 70.75C77.0703 71.2578 76.3542 71.6484 75.5078 71.9219C74.6745 72.1823 73.7435 72.3125 72.7148 72.3125C71.8164 72.3125 71.0026 72.1888 70.2734 71.9414C69.5443 71.681 68.8932 71.3685 68.3203 71.0039C67.7604 70.6263 67.2786 70.2292 66.875 69.8125C66.4714 69.3958 66.1589 69.0182 65.9375 68.6797L66.6211 68.1914C66.7904 68.3867 67.0052 68.6016 67.2656 68.8359C67.526 69.0573 67.8125 69.2656 68.125 69.4609C68.4505 69.6562 68.7956 69.819 69.1602 69.9492C69.5247 70.0664 69.8958 70.125 70.2734 70.125C71.2109 70.125 71.9792 69.9036 72.5781 69.4609C73.1771 69.0052 73.4766 68.3346 73.4766 67.4492C73.4766 66.9544 73.3138 66.4466 72.9883 65.9258C72.6628 65.3919 72.2526 64.8451 71.7578 64.2852C71.263 63.7253 70.7292 63.1458 70.1562 62.5469C69.5833 61.9479 69.0495 61.3294 68.5547 60.6914C68.0599 60.0534 67.6497 59.3958 67.3242 58.7188C66.9987 58.0417 66.8359 57.3385 66.8359 56.6094C66.8359 55.7891 66.9987 55.0729 67.3242 54.4609C67.6628 53.849 68.1055 53.3411 68.6523 52.9375C69.2122 52.5339 69.8438 52.2344 70.5469 52.0391C71.263 51.8307 71.9987 51.7266 72.7539 51.7266C73.6263 51.7266 74.4206 51.8047 75.1367 51.9609C75.8529 52.1172 76.4648 52.3581 76.9727 52.6836C77.4935 52.9961 77.8906 53.3932 78.1641 53.875C78.4505 54.3568 78.5938 54.9167 78.5938 55.5547C78.5938 56.0495 78.431 56.4792 78.1055 56.8438C77.7799 57.2083 77.3242 57.3906 76.7383 57.3906C76.1784 57.3906 75.7487 57.2734 75.4492 57.0391C75.1628 56.7917 75.0195 56.4596 75.0195 56.043C75.0195 55.7695 75.0846 55.5547 75.2148 55.3984C75.3581 55.2422 75.5143 55.1185 75.6836 55.0273C75.8529 54.9232 76.0026 54.8385 76.1328 54.7734C76.276 54.6953 76.3477 54.5977 76.3477 54.4805C76.3477 54.1159 76.1523 53.8294 75.7617 53.6211C75.3711 53.3997 74.8698 53.2891 74.2578 53.2891ZM88.1836 63.0352C88.1836 63.4518 88.2422 63.9076 88.3594 64.4023C88.4896 64.8841 88.6719 65.3724 88.9062 65.8672C89.1406 66.362 89.4271 66.8372 89.7656 67.293C90.1172 67.7357 90.5143 68.1328 90.957 68.4844C91.4128 68.8359 91.9141 69.1159 92.4609 69.3242C93.0078 69.5326 93.6068 69.6367 94.2578 69.6367C94.7135 69.6367 95.1367 69.5846 95.5273 69.4805C95.918 69.3763 96.2826 69.2331 96.6211 69.0508C96.9596 68.8685 97.2852 68.6602 97.5977 68.4258C97.9102 68.1784 98.2227 67.918 98.5352 67.6445L99.0234 68.1133C98.724 68.5169 98.3398 68.9596 97.8711 69.4414C97.4023 69.9232 96.8359 70.3789 96.1719 70.8086C95.5078 71.2253 94.7331 71.5768 93.8477 71.8633C92.9622 72.1367 91.9531 72.2734 90.8203 72.2734C89.6875 72.2734 88.5807 72.0716 87.5 71.668C86.4323 71.2513 85.4818 70.6328 84.6484 69.8125C83.8151 68.9922 83.1445 67.9701 82.6367 66.7461C82.1419 65.5221 81.8945 64.0898 81.8945 62.4492C81.8945 61.2643 82.0443 60.1771 82.3438 59.1875C82.6432 58.1979 83.0469 57.306 83.5547 56.5117C84.0755 55.7174 84.6745 55.0208 85.3516 54.4219C86.0417 53.8229 86.7643 53.3281 87.5195 52.9375C88.2747 52.5339 89.043 52.2344 89.8242 52.0391C90.6185 51.8307 91.3802 51.7266 92.1094 51.7266C93.0729 51.7266 93.9128 51.8307 94.6289 52.0391C95.3451 52.2474 95.9375 52.5273 96.4062 52.8789C96.888 53.2305 97.2461 53.6406 97.4805 54.1094C97.7148 54.5651 97.832 55.0469 97.832 55.5547C97.832 56.1667 97.6562 56.7201 97.3047 57.2148C96.9531 57.6966 96.4844 58.1198 95.8984 58.4844L88.1836 63.0352ZM92.1094 59.0703C92.2786 58.9661 92.4154 58.8685 92.5195 58.7773C92.6367 58.6732 92.7279 58.556 92.793 58.4258C92.8581 58.2826 92.9036 58.1133 92.9297 57.918C92.9688 57.7096 92.9883 57.4557 92.9883 57.1562C92.9883 56.8307 92.9492 56.4727 92.8711 56.082C92.806 55.6784 92.6888 55.3008 92.5195 54.9492C92.3503 54.5977 92.1354 54.3047 91.875 54.0703C91.6146 53.8359 91.3021 53.7188 90.9375 53.7188C90.4688 53.7188 90.0651 53.862 89.7266 54.1484C89.401 54.4219 89.1276 54.7799 88.9062 55.2227C88.6979 55.6654 88.5286 56.1732 88.3984 56.7461C88.2812 57.306 88.1901 57.8724 88.125 58.4453C88.0599 59.0182 88.0208 59.5716 88.0078 60.1055C87.9948 60.6263 87.9883 61.069 87.9883 61.4336L92.1094 59.0703ZM113.145 62.2734C113.145 60.6328 113.066 59.3242 112.91 58.3477C112.767 57.3581 112.572 56.6094 112.324 56.1016C112.077 55.5807 111.803 55.2422 111.504 55.0859C111.204 54.9167 110.898 54.832 110.586 54.832C110.208 54.832 109.87 54.9362 109.57 55.1445C109.284 55.3398 109.03 55.5677 108.809 55.8281C108.6 56.0885 108.418 56.349 108.262 56.6094C108.118 56.8698 107.995 57.0651 107.891 57.1953V70.2422C107.891 70.4115 107.865 70.6198 107.812 70.8672C107.76 71.1016 107.63 71.3294 107.422 71.5508C107.227 71.7591 106.927 71.9349 106.523 72.0781C106.133 72.2344 105.592 72.3125 104.902 72.3125C104.212 72.3125 103.665 72.2279 103.262 72.0586C102.871 71.9023 102.572 71.7135 102.363 71.4922C102.155 71.2708 102.025 71.043 101.973 70.8086C101.921 70.5742 101.895 70.3854 101.895 70.2422V55.1641C101.895 54.7865 101.803 54.4609 101.621 54.1875C101.452 53.901 101.159 53.7578 100.742 53.7578C100.521 53.7578 100.332 53.7969 100.176 53.875C100.02 53.9531 99.8503 54.0638 99.668 54.207L99.2578 53.7188C99.5573 53.4714 99.8893 53.2305 100.254 52.9961C100.632 52.7487 101.035 52.5339 101.465 52.3516C101.895 52.1693 102.357 52.0195 102.852 51.9023C103.346 51.7852 103.867 51.7266 104.414 51.7266C105.26 51.7266 105.918 51.8698 106.387 52.1562C106.855 52.4297 107.201 52.7617 107.422 53.1523C107.643 53.543 107.773 53.9531 107.812 54.3828C107.865 54.7995 107.891 55.151 107.891 55.4375C108.372 54.7474 108.919 54.1289 109.531 53.582C109.779 53.3477 110.052 53.1198 110.352 52.8984C110.664 52.6771 110.99 52.4818 111.328 52.3125C111.68 52.1302 112.044 51.987 112.422 51.8828C112.812 51.7786 113.21 51.7266 113.613 51.7266C114.499 51.7266 115.28 51.8958 115.957 52.2344C116.647 52.5729 117.227 53.1393 117.695 53.9336C118.164 54.7279 118.522 55.7826 118.77 57.0977C119.017 58.3997 119.141 60.0208 119.141 61.9609C119.141 63.849 118.971 65.4896 118.633 66.8828C118.294 68.276 117.852 69.4609 117.305 70.4375C116.758 71.4141 116.139 72.2083 115.449 72.8203C114.759 73.4453 114.062 73.9336 113.359 74.2852C112.656 74.6367 111.979 74.8776 111.328 75.0078C110.69 75.151 110.137 75.2292 109.668 75.2422L109.453 74.4414C109.844 74.3503 110.202 74.207 110.527 74.0117C110.866 73.8164 111.172 73.5299 111.445 73.1523C111.719 72.7747 111.96 72.2995 112.168 71.7266C112.376 71.1406 112.552 70.4115 112.695 69.5391C112.852 68.6667 112.962 67.638 113.027 66.4531C113.105 65.2552 113.145 63.862 113.145 62.2734ZM122.344 59.7148C122.344 58.3867 122.572 57.2279 123.027 56.2383C123.496 55.2357 124.121 54.4023 124.902 53.7383C125.684 53.0612 126.589 52.5599 127.617 52.2344C128.646 51.8958 129.727 51.7266 130.859 51.7266C131.992 51.7266 133.066 51.8763 134.082 52.1758C135.098 52.4753 135.996 52.9375 136.777 53.5625C137.025 53.1849 137.227 52.7878 137.383 52.3711C137.539 51.9544 137.617 51.5378 137.617 51.1211C137.617 50.5742 137.467 50.138 137.168 49.8125C136.882 49.487 136.51 49.3242 136.055 49.3242V48.7578C136.341 48.6667 136.595 48.5885 136.816 48.5234C137.038 48.4453 137.24 48.3867 137.422 48.3477C137.604 48.3086 137.786 48.2826 137.969 48.2695C138.151 48.2435 138.353 48.2305 138.574 48.2305C139.186 48.2305 139.655 48.4193 139.98 48.7969C140.306 49.1745 140.469 49.6953 140.469 50.3594C140.469 50.75 140.378 51.1406 140.195 51.5312C140.013 51.9089 139.785 52.2734 139.512 52.625C139.238 52.9766 138.932 53.3086 138.594 53.6211C138.268 53.9336 137.956 54.207 137.656 54.4414C138.203 55.0664 138.626 55.7956 138.926 56.6289C139.225 57.4622 139.375 58.4128 139.375 59.4805C139.375 60.8216 139.141 62.0065 138.672 63.0352C138.216 64.0638 137.598 64.9297 136.816 65.6328C136.035 66.3359 135.13 66.8698 134.102 67.2344C133.073 67.5859 131.992 67.7617 130.859 67.7617C130.195 67.7617 129.544 67.7031 128.906 67.5859C128.268 67.4688 127.669 67.2995 127.109 67.0781C126.901 67.2344 126.719 67.4297 126.562 67.6641C126.419 67.8984 126.348 68.1589 126.348 68.4453C126.348 68.9271 126.556 69.2852 126.973 69.5195C127.389 69.7539 127.943 69.9232 128.633 70.0273C129.323 70.1315 130.104 70.1966 130.977 70.2227C131.849 70.2487 132.741 70.2943 133.652 70.3594C134.577 70.4115 135.475 70.5221 136.348 70.6914C137.22 70.8477 138.001 71.1146 138.691 71.4922C139.382 71.8568 139.935 72.3581 140.352 72.9961C140.768 73.6341 140.977 74.4609 140.977 75.4766C140.977 76.2188 140.82 76.8828 140.508 77.4688C140.195 78.0677 139.772 78.5885 139.238 79.0312C138.717 79.487 138.105 79.8711 137.402 80.1836C136.712 80.5091 135.977 80.7695 135.195 80.9648C134.427 81.1732 133.639 81.3229 132.832 81.4141C132.038 81.5052 131.276 81.5508 130.547 81.5508C129.219 81.5508 128.021 81.4792 126.953 81.3359C125.898 81.2057 125 80.9974 124.258 80.7109C123.516 80.4245 122.943 80.0534 122.539 79.5977C122.135 79.1419 121.934 78.5951 121.934 77.957C121.934 77.5013 122.038 77.0781 122.246 76.6875C122.454 76.3099 122.728 75.9583 123.066 75.6328C123.418 75.3203 123.809 75.0339 124.238 74.7734C124.668 74.526 125.104 74.2917 125.547 74.0703C124.896 73.7969 124.349 73.3802 123.906 72.8203C123.477 72.2734 123.262 71.5443 123.262 70.6328C123.262 70.151 123.346 69.7083 123.516 69.3047C123.685 68.888 123.9 68.5104 124.16 68.1719C124.434 67.8203 124.727 67.5078 125.039 67.2344C125.365 66.9479 125.677 66.707 125.977 66.5117C125.443 66.1992 124.948 65.8216 124.492 65.3789C124.049 64.9232 123.665 64.4154 123.34 63.8555C123.027 63.2826 122.78 62.651 122.598 61.9609C122.428 61.2708 122.344 60.5221 122.344 59.7148ZM133.496 59.5586C133.496 58.8034 133.457 58.0677 133.379 57.3516C133.301 56.6354 133.164 55.9974 132.969 55.4375C132.773 54.8776 132.507 54.4284 132.168 54.0898C131.829 53.7383 131.393 53.5625 130.859 53.5625C130.326 53.5625 129.889 53.7448 129.551 54.1094C129.212 54.4609 128.945 54.9297 128.75 55.5156C128.555 56.0885 128.418 56.7461 128.34 57.4883C128.262 58.2174 128.223 58.9596 128.223 59.7148C128.223 60.4831 128.262 61.2383 128.34 61.9805C128.418 62.7227 128.555 63.3867 128.75 63.9727C128.945 64.5586 129.212 65.0339 129.551 65.3984C129.889 65.75 130.326 65.9258 130.859 65.9258C131.393 65.9258 131.829 65.737 132.168 65.3594C132.507 64.9818 132.773 64.4935 132.969 63.8945C133.164 63.2826 133.301 62.599 133.379 61.8438C133.457 61.0885 133.496 60.3268 133.496 59.5586ZM136.465 77.0391C136.465 76.6224 136.302 76.2773 135.977 76.0039C135.651 75.7435 135.221 75.5286 134.688 75.3594C134.167 75.2031 133.568 75.0794 132.891 74.9883C132.227 74.9102 131.549 74.8451 130.859 74.793C130.169 74.7539 129.499 74.7148 128.848 74.6758C128.197 74.6367 127.63 74.5846 127.148 74.5195C126.875 74.7148 126.608 74.9232 126.348 75.1445C126.1 75.3789 125.879 75.6198 125.684 75.8672C125.501 76.1276 125.352 76.3945 125.234 76.668C125.117 76.9544 125.059 77.2409 125.059 77.5273C125.059 78.0221 125.202 78.4323 125.488 78.7578C125.775 79.0964 126.159 79.3633 126.641 79.5586C127.135 79.7539 127.702 79.8906 128.34 79.9688C128.991 80.0469 129.674 80.0859 130.391 80.0859C131.341 80.0859 132.194 80.0013 132.949 79.832C133.704 79.6758 134.342 79.4544 134.863 79.168C135.384 78.8945 135.781 78.5755 136.055 78.2109C136.328 77.8464 136.465 77.4557 136.465 77.0391ZM148.613 63.0352C148.613 63.4518 148.672 63.9076 148.789 64.4023C148.919 64.8841 149.102 65.3724 149.336 65.8672C149.57 66.362 149.857 66.8372 150.195 67.293C150.547 67.7357 150.944 68.1328 151.387 68.4844C151.842 68.8359 152.344 69.1159 152.891 69.3242C153.438 69.5326 154.036 69.6367 154.688 69.6367C155.143 69.6367 155.566 69.5846 155.957 69.4805C156.348 69.3763 156.712 69.2331 157.051 69.0508C157.389 68.8685 157.715 68.6602 158.027 68.4258C158.34 68.1784 158.652 67.918 158.965 67.6445L159.453 68.1133C159.154 68.5169 158.77 68.9596 158.301 69.4414C157.832 69.9232 157.266 70.3789 156.602 70.8086C155.938 71.2253 155.163 71.5768 154.277 71.8633C153.392 72.1367 152.383 72.2734 151.25 72.2734C150.117 72.2734 149.01 72.0716 147.93 71.668C146.862 71.2513 145.911 70.6328 145.078 69.8125C144.245 68.9922 143.574 67.9701 143.066 66.7461C142.572 65.5221 142.324 64.0898 142.324 62.4492C142.324 61.2643 142.474 60.1771 142.773 59.1875C143.073 58.1979 143.477 57.306 143.984 56.5117C144.505 55.7174 145.104 55.0208 145.781 54.4219C146.471 53.8229 147.194 53.3281 147.949 52.9375C148.704 52.5339 149.473 52.2344 150.254 52.0391C151.048 51.8307 151.81 51.7266 152.539 51.7266C153.503 51.7266 154.342 51.8307 155.059 52.0391C155.775 52.2474 156.367 52.5273 156.836 52.8789C157.318 53.2305 157.676 53.6406 157.91 54.1094C158.145 54.5651 158.262 55.0469 158.262 55.5547C158.262 56.1667 158.086 56.7201 157.734 57.2148C157.383 57.6966 156.914 58.1198 156.328 58.4844L148.613 63.0352ZM152.539 59.0703C152.708 58.9661 152.845 58.8685 152.949 58.7773C153.066 58.6732 153.158 58.556 153.223 58.4258C153.288 58.2826 153.333 58.1133 153.359 57.918C153.398 57.7096 153.418 57.4557 153.418 57.1562C153.418 56.8307 153.379 56.4727 153.301 56.082C153.236 55.6784 153.118 55.3008 152.949 54.9492C152.78 54.5977 152.565 54.3047 152.305 54.0703C152.044 53.8359 151.732 53.7188 151.367 53.7188C150.898 53.7188 150.495 53.862 150.156 54.1484C149.831 54.4219 149.557 54.7799 149.336 55.2227C149.128 55.6654 148.958 56.1732 148.828 56.7461C148.711 57.306 148.62 57.8724 148.555 58.4453C148.49 59.0182 148.451 59.5716 148.438 60.1055C148.424 60.6263 148.418 61.069 148.418 61.4336L152.539 59.0703ZM168.32 55.8477C168.815 55.0924 169.342 54.4089 169.902 53.7969C170.137 53.5365 170.391 53.2826 170.664 53.0352C170.938 52.7878 171.217 52.5664 171.504 52.3711C171.803 52.1758 172.109 52.0195 172.422 51.9023C172.734 51.7852 173.047 51.7266 173.359 51.7266C174.023 51.7266 174.544 51.9284 174.922 52.332C175.299 52.7227 175.488 53.276 175.488 53.9922C175.488 54.4349 175.449 54.8646 175.371 55.2812C175.306 55.6849 175.169 56.1797 174.961 56.7656H174.414C174.336 56.362 174.154 56.0299 173.867 55.7695C173.581 55.4961 173.164 55.3594 172.617 55.3594C172.214 55.3594 171.816 55.4375 171.426 55.5938C171.035 55.737 170.651 55.9193 170.273 56.1406C169.909 56.362 169.557 56.6029 169.219 56.8633C168.893 57.1237 168.594 57.3711 168.32 57.6055V70.2812C168.32 70.4505 168.294 70.6523 168.242 70.8867C168.19 71.1211 168.06 71.3424 167.852 71.5508C167.656 71.7591 167.357 71.9349 166.953 72.0781C166.562 72.2344 166.022 72.3125 165.332 72.3125C164.642 72.3125 164.095 72.2279 163.691 72.0586C163.301 71.9023 163.001 71.7135 162.793 71.4922C162.585 71.2708 162.454 71.043 162.402 70.8086C162.35 70.5742 162.324 70.3854 162.324 70.2422V55.1641C162.324 54.7865 162.233 54.4609 162.051 54.1875C161.882 53.901 161.589 53.7578 161.172 53.7578C160.951 53.7578 160.762 53.7969 160.605 53.875C160.449 53.9531 160.28 54.0638 160.098 54.207L159.688 53.7188C159.987 53.4714 160.319 53.2305 160.684 52.9961C161.061 52.7487 161.465 52.5339 161.895 52.3516C162.324 52.1693 162.786 52.0195 163.281 51.9023C163.776 51.7852 164.297 51.7266 164.844 51.7266C165.404 51.7266 165.879 51.8047 166.27 51.9609C166.673 52.1042 166.999 52.2995 167.246 52.5469C167.507 52.7812 167.708 53.0482 167.852 53.3477C167.995 53.6471 168.099 53.9531 168.164 54.2656C168.242 54.5651 168.288 54.8581 168.301 55.1445C168.314 55.418 168.32 55.6523 168.32 55.8477Z" fill="#CA8A04"/>
</svg>
